<?xml version="1.0" encoding="utf-8"?>
<!-- Generator: Adobe Illustrator 17.1.0, SVG Export Plug-In . SVG Version: 6.00 Build 0)  -->
<!DOCTYPE svg PUBLIC "-//W3C//DTD SVG 1.1//EN" "http://www.w3.org/Graphics/SVG/1.1/DTD/svg11.dtd">
<svg version="1.1" xmlns="http://www.w3.org/2000/svg" xmlns:xlink="http://www.w3.org/1999/xlink" x="0px" y="0px"
	 viewBox="0 0 24.9 121.7" enable-background="new 0 0 24.9 121.7" xml:space="preserve">
<g id="Layer_4">
</g>
<g id="Layer_2">
	<g>
		<g>
			<defs>
				<rect id="SVGID_147_" x="-1255.1" y="-343.8" width="1280" height="809"/>
			</defs>
			<clipPath id="SVGID_2_">
				<use xlink:href="#SVGID_147_"  overflow="visible"/>
			</clipPath>
			<path clip-path="url(#SVGID_2_)" fill="none" stroke="#FFFFFF" stroke-width="1.25" stroke-miterlimit="10" d="M-11.1,435.2v27
				 M-11.1-313.8v-27 M-1219.1,435.2v27 M-1219.1-313.8v-27 M-5.1,429.2h27 M-1225.1,429.2h-27 M-5.1-307.8h27 M-1225.1-307.8h-27"
				/>
			<path clip-path="url(#SVGID_2_)" fill="none" stroke="#000000" stroke-width="0.25" stroke-miterlimit="10" d="M-11.1,435.2v27
				 M-11.1-313.8v-27 M-1219.1,435.2v27 M-1219.1-313.8v-27 M-5.1,429.2h27 M-1225.1,429.2h-27 M-5.1-307.8h27 M-1225.1-307.8h-27"
				/>
			<rect x="0.9" y="0.7" clip-path="url(#SVGID_2_)" fill="#00AEEF" width="15" height="15"/>
			
				<rect x="0.9" y="0.7" clip-path="url(#SVGID_2_)" fill="none" stroke="#000000" stroke-width="0.5" stroke-miterlimit="10" width="15" height="15"/>
			<rect x="0.9" y="15.7" clip-path="url(#SVGID_2_)" fill="#EC008C" width="15" height="15"/>
			
				<rect x="0.9" y="15.7" clip-path="url(#SVGID_2_)" fill="none" stroke="#000000" stroke-width="0.5" stroke-miterlimit="10" width="15" height="15"/>
			<rect x="0.9" y="30.7" clip-path="url(#SVGID_2_)" fill="#FFF200" width="15" height="15"/>
			
				<rect x="0.9" y="30.7" clip-path="url(#SVGID_2_)" fill="none" stroke="#000000" stroke-width="0.5" stroke-miterlimit="10" width="15" height="15"/>
			<rect x="0.9" y="45.7" clip-path="url(#SVGID_2_)" fill="#2E3192" width="15" height="15"/>
			
				<rect x="0.9" y="45.7" clip-path="url(#SVGID_2_)" fill="none" stroke="#000000" stroke-width="0.5" stroke-miterlimit="10" width="15" height="15"/>
			<rect x="0.9" y="60.7" clip-path="url(#SVGID_2_)" fill="#ED1C24" width="15" height="15"/>
			
				<rect x="0.9" y="60.7" clip-path="url(#SVGID_2_)" fill="none" stroke="#000000" stroke-width="0.5" stroke-miterlimit="10" width="15" height="15"/>
			<rect x="0.9" y="75.7" clip-path="url(#SVGID_2_)" fill="#00A651" width="15" height="15"/>
			
				<rect x="0.9" y="75.7" clip-path="url(#SVGID_2_)" fill="none" stroke="#000000" stroke-width="0.5" stroke-miterlimit="10" width="15" height="15"/>
			<rect x="0.9" y="90.7" clip-path="url(#SVGID_2_)" fill="#363639" width="15" height="15"/>
			
				<rect x="0.9" y="90.7" clip-path="url(#SVGID_2_)" fill="none" stroke="#000000" stroke-width="0.5" stroke-miterlimit="10" width="15" height="15"/>
			<rect x="0.9" y="105.7" clip-path="url(#SVGID_2_)" fill="#231F20" width="15" height="15"/>
			
				<rect x="0.9" y="105.7" clip-path="url(#SVGID_2_)" fill="none" stroke="#000000" stroke-width="0.5" stroke-miterlimit="10" width="15" height="15"/>
		</g>
	</g>
</g>
<g id="Layer_1">
</g>
<g id="Layer_3" display="none">
</g>
</svg>
