<?xml version="1.0" encoding="utf-8"?>
<!-- Generator: Adobe Illustrator 17.1.0, SVG Export Plug-In . SVG Version: 6.00 Build 0)  -->
<!DOCTYPE svg PUBLIC "-//W3C//DTD SVG 1.1//EN" "http://www.w3.org/Graphics/SVG/1.1/DTD/svg11.dtd">
<svg version="1.1" xmlns="http://www.w3.org/2000/svg" xmlns:xlink="http://www.w3.org/1999/xlink" x="0px" y="0px"
	 viewBox="0 0 270.5 62.8" enable-background="new 0 0 270.5 62.8" xml:space="preserve">
<g id="Layer_4">
</g>
<g id="Layer_2">
	<g>
		<g>
			<defs>
				<rect id="SVGID_147_" y="0" width="1280" height="809"/>
			</defs>
			<clipPath id="SVGID_2_">
				<use xlink:href="#SVGID_147_"  overflow="visible"/>
			</clipPath>
			<path clip-path="url(#SVGID_2_)" fill="none" stroke="#FFFFFF" stroke-width="1.25" stroke-miterlimit="10" d="M1244,779v27
				 M1244,30V3 M36,779v27 M36,30V3 M1250,773h27 M30,773H3 M1250,36h27 M30,36H3"/>
			<path clip-path="url(#SVGID_2_)" fill="none" stroke="#000000" stroke-width="0.25" stroke-miterlimit="10" d="M1244,779v27
				 M1244,30V3 M36,779v27 M36,30V3 M1250,773h27 M30,773H3 M1250,36h27 M30,36H3"/>
			
				<circle clip-path="url(#SVGID_2_)" fill="none" stroke="#FFFFFF" stroke-width="1.25" stroke-miterlimit="10" cx="54" cy="16.5" r="6"/>
			
				<line clip-path="url(#SVGID_2_)" fill="none" stroke="#FFFFFF" stroke-width="1.25" stroke-miterlimit="10" x1="45" y1="16.5" x2="63" y2="16.5"/>
			
				<line clip-path="url(#SVGID_2_)" fill="none" stroke="#FFFFFF" stroke-width="1.25" stroke-miterlimit="10" x1="54" y1="7.5" x2="54" y2="25.5"/>
			
				<circle clip-path="url(#SVGID_2_)" fill="none" stroke="#FFFFFF" stroke-width="1.25" stroke-miterlimit="10" cx="54" cy="16.5" r="3"/>
			
				<circle clip-path="url(#SVGID_2_)" fill="none" stroke="#000000" stroke-width="0.25" stroke-miterlimit="10" cx="54" cy="16.5" r="6"/>
			
				<line clip-path="url(#SVGID_2_)" fill="none" stroke="#000000" stroke-width="0.25" stroke-miterlimit="10" x1="45" y1="16.5" x2="63" y2="16.5"/>
			
				<line clip-path="url(#SVGID_2_)" fill="none" stroke="#000000" stroke-width="0.25" stroke-miterlimit="10" x1="54" y1="7.5" x2="54" y2="25.5"/>
			<path clip-path="url(#SVGID_2_)" d="M57,16.5c0,1.7-1.3,3-3,3c-1.7,0-3-1.3-3-3c0-1.7,1.3-3,3-3C55.7,13.5,57,14.8,57,16.5"/>
			
				<line clip-path="url(#SVGID_2_)" fill="none" stroke="#FFFFFF" stroke-width="0.25" stroke-miterlimit="10" x1="51" y1="16.5" x2="57" y2="16.5"/>
			
				<line clip-path="url(#SVGID_2_)" fill="none" stroke="#FFFFFF" stroke-width="0.25" stroke-miterlimit="10" x1="54" y1="13.5" x2="54" y2="19.5"/>
			
				<circle clip-path="url(#SVGID_2_)" fill="none" stroke="#FFFFFF" stroke-width="1.25" stroke-miterlimit="10" cx="16.5" cy="54" r="6"/>
			
				<line clip-path="url(#SVGID_2_)" fill="none" stroke="#FFFFFF" stroke-width="1.25" stroke-miterlimit="10" x1="7.5" y1="54" x2="25.5" y2="54"/>
			
				<line clip-path="url(#SVGID_2_)" fill="none" stroke="#FFFFFF" stroke-width="1.25" stroke-miterlimit="10" x1="16.5" y1="45" x2="16.5" y2="63"/>
			
				<circle clip-path="url(#SVGID_2_)" fill="none" stroke="#FFFFFF" stroke-width="1.25" stroke-miterlimit="10" cx="16.5" cy="54" r="3"/>
			
				<circle clip-path="url(#SVGID_2_)" fill="none" stroke="#000000" stroke-width="0.25" stroke-miterlimit="10" cx="16.5" cy="54" r="6"/>
			
				<line clip-path="url(#SVGID_2_)" fill="none" stroke="#000000" stroke-width="0.25" stroke-miterlimit="10" x1="7.5" y1="54" x2="25.5" y2="54"/>
			
				<line clip-path="url(#SVGID_2_)" fill="none" stroke="#000000" stroke-width="0.25" stroke-miterlimit="10" x1="16.5" y1="45" x2="16.5" y2="63"/>
			<path clip-path="url(#SVGID_2_)" d="M19.5,54c0,1.7-1.3,3-3,3s-3-1.3-3-3c0-1.7,1.3-3,3-3S19.5,52.3,19.5,54"/>
			
				<line clip-path="url(#SVGID_2_)" fill="none" stroke="#FFFFFF" stroke-width="0.25" stroke-miterlimit="10" x1="13.5" y1="54" x2="19.5" y2="54"/>
			
				<line clip-path="url(#SVGID_2_)" fill="none" stroke="#FFFFFF" stroke-width="0.25" stroke-miterlimit="10" x1="16.5" y1="51" x2="16.5" y2="57"/>
			<path clip-path="url(#SVGID_2_)" fill="none" stroke="#FFFFFF" stroke-width="0.4" stroke-miterlimit="10" d="M75.4,14.6
				c0.1,0,0.3,0.1,0.4,0.1c0.4,0,0.7-0.1,1-0.3c0.2-0.2,0.4-0.5,0.4-0.8c0-0.3-0.1-0.5-0.3-0.7c-0.2-0.2-0.4-0.3-0.8-0.3l-0.5-0.1
				c-0.2,0-0.4-0.1-0.5-0.2C75,12.2,75,12.1,75,12c0-0.2,0.1-0.3,0.2-0.5c0.1-0.1,0.3-0.2,0.6-0.2c0.2,0,0.3,0,0.4,0.1
				c0.1,0.1,0.2,0.1,0.3,0.2c0,0,0.1,0.1,0.1,0.2c0.1,0.1,0.1,0.2,0.2,0.2c0.1,0,0.1,0,0.2-0.1c0,0,0.1-0.1,0.1-0.2v0l0-0.6
				c0-0.1,0-0.2-0.1-0.2c0,0-0.1,0-0.2,0c-0.1,0-0.1,0-0.1,0c0,0,0,0.1,0,0.1C76.4,11,76.3,11,76.1,11c-0.1,0-0.2,0-0.3,0
				c-0.4,0-0.7,0.1-0.9,0.3s-0.4,0.5-0.4,0.8c0,0.3,0.1,0.5,0.3,0.7c0.2,0.2,0.5,0.3,0.9,0.3l0.4,0.1c0.2,0,0.3,0.1,0.4,0.2
				c0.1,0.1,0.1,0.2,0.1,0.4c0,0.2-0.1,0.3-0.2,0.5c-0.2,0.1-0.4,0.2-0.6,0.2c-0.2,0-0.4,0-0.5-0.1C75.1,14,75,13.9,75,13.8
				c0,0,0-0.1-0.1-0.2c-0.1-0.2-0.1-0.3-0.3-0.3c-0.1,0-0.1,0-0.2,0.1c0,0-0.1,0.1-0.1,0.2v0.1l0,0.7c0,0.1,0,0.2,0.1,0.2
				c0,0,0.1,0.1,0.2,0.1c0.1,0,0.1,0,0.2-0.1c0,0,0.1-0.1,0.1-0.2C75.1,14.5,75.2,14.5,75.4,14.6z"/>
			<path clip-path="url(#SVGID_2_)" fill="none" stroke="#FFFFFF" stroke-width="0.4" stroke-miterlimit="10" d="M79,12v-0.6
				c0-0.2,0-0.3-0.1-0.3S78.9,11,78.8,11c-0.1,0-0.1,0-0.2,0.1c0,0-0.1,0.1-0.1,0.2v0.2V12h-0.3c-0.2,0-0.3,0-0.3,0
				c-0.1,0-0.1,0.1-0.1,0.2c0,0.1,0,0.1,0.1,0.2c0,0,0.1,0,0.2,0h0.5v1v0.1c0,0.2,0,0.3,0,0.4c0,0.1,0,0.2,0.1,0.2
				c0.1,0.1,0.2,0.3,0.3,0.3c0.2,0.1,0.3,0.1,0.6,0.1c0.1,0,0.3,0,0.4-0.1c0.2,0,0.3-0.1,0.5-0.2c0.1,0,0.2-0.1,0.2-0.1
				c0,0,0.1-0.1,0.1-0.2c0-0.1,0-0.1-0.1-0.1c0,0-0.1-0.1-0.1-0.1c-0.1,0-0.2,0.1-0.5,0.2c-0.2,0.1-0.5,0.2-0.6,0.2
				c-0.2,0-0.3-0.1-0.4-0.2c-0.1-0.1-0.1-0.3-0.1-0.6v-1h1.2c0.1,0,0.1,0,0.2-0.1c0,0,0.1-0.1,0.1-0.2c0-0.1,0-0.1-0.1-0.2
				c0,0-0.1-0.1-0.2-0.1H79z"/>
			<path clip-path="url(#SVGID_2_)" fill="none" stroke="#FFFFFF" stroke-width="0.4" stroke-miterlimit="10" d="M82.4,12.3
				c0.2-0.1,0.4-0.2,0.7-0.2c0.2,0,0.4,0.1,0.6,0.2c0.2,0.1,0.3,0.3,0.3,0.6H82C82.1,12.6,82.2,12.5,82.4,12.3z M84,13.3L84,13.3
				c0.2,0,0.4,0,0.4-0.1c0,0,0.1-0.1,0.1-0.2c0-0.4-0.1-0.7-0.4-0.9c-0.3-0.2-0.6-0.4-1-0.4c-0.5,0-0.8,0.1-1.1,0.4
				c-0.3,0.3-0.4,0.6-0.4,1c0,0.4,0.1,0.8,0.4,1c0.3,0.3,0.6,0.4,1.1,0.4c0.2,0,0.4,0,0.6-0.1c0.2-0.1,0.4-0.1,0.6-0.2
				c0.1,0,0.2-0.1,0.2-0.1s0.1-0.1,0.1-0.2c0-0.1,0-0.1-0.1-0.1c0,0-0.1-0.1-0.1-0.1c-0.1,0-0.2,0.1-0.5,0.2
				c-0.3,0.1-0.5,0.2-0.7,0.2c-0.3,0-0.5-0.1-0.7-0.2c-0.2-0.2-0.3-0.4-0.3-0.7H84z"/>
			<path clip-path="url(#SVGID_2_)" fill="none" stroke="#FFFFFF" stroke-width="0.4" stroke-miterlimit="10" d="M87.3,14.3
				c0,0.1,0,0.1,0.1,0.1c0,0,0.1,0,0.1,0H88c0.1,0,0.1,0,0.2-0.1c0,0,0.1-0.1,0.1-0.2c0-0.1,0-0.1-0.1-0.2c0,0-0.1,0-0.3,0h-0.1
				v-1.3c0-0.3-0.1-0.6-0.3-0.8c-0.2-0.2-0.4-0.3-0.8-0.3c-0.3,0-0.6,0-0.8,0.1c-0.2,0.1-0.3,0.2-0.3,0.3c0,0.1,0,0.1,0.1,0.2
				c0,0,0.1,0.1,0.1,0.1c0.1,0,0.2,0,0.4-0.1c0.2-0.1,0.4-0.1,0.5-0.1c0.2,0,0.4,0.1,0.5,0.2c0.1,0.1,0.2,0.3,0.2,0.5v0
				c-0.1,0-0.2-0.1-0.4-0.1c-0.1,0-0.2,0-0.3,0c-0.4,0-0.8,0.1-1,0.3c-0.2,0.2-0.4,0.4-0.4,0.7c0,0.3,0.1,0.5,0.3,0.6
				c0.2,0.2,0.4,0.2,0.7,0.2c0.2,0,0.4,0,0.6-0.1c0.2-0.1,0.4-0.2,0.5-0.3L87.3,14.3z M87.3,13.5c0,0.1-0.1,0.3-0.3,0.4
				c-0.2,0.1-0.4,0.2-0.7,0.2c-0.2,0-0.3,0-0.4-0.1c-0.1-0.1-0.2-0.2-0.2-0.3c0-0.2,0.1-0.3,0.3-0.4c0.2-0.1,0.4-0.2,0.7-0.2
				c0.1,0,0.2,0,0.3,0c0.1,0,0.2,0,0.3,0.1V13.5z"/>
			<path clip-path="url(#SVGID_2_)" fill="none" stroke="#FFFFFF" stroke-width="0.4" stroke-miterlimit="10" d="M91.3,14.2
				c0,0.1,0,0.2,0.1,0.2c0,0,0.1,0.1,0.2,0.1h0.4c0.1,0,0.1,0,0.2-0.1c0,0,0.1-0.1,0.1-0.2c0-0.1,0-0.1-0.1-0.2s-0.1,0-0.2,0h0v-1.3
				c0-0.4-0.1-0.6-0.2-0.8s-0.3-0.2-0.6-0.2c-0.1,0-0.3,0-0.4,0.1c-0.1,0.1-0.2,0.1-0.3,0.3c0-0.1-0.1-0.2-0.2-0.3
				c-0.1-0.1-0.2-0.1-0.3-0.1c-0.1,0-0.2,0-0.3,0.1c-0.1,0-0.2,0.1-0.3,0.2c0-0.1,0-0.1,0-0.1c0,0-0.1,0-0.1,0h-0.5
				c-0.1,0-0.1,0-0.2,0.1s-0.1,0.1-0.1,0.2c0,0.1,0,0.1,0.1,0.2c0.1,0,0.1,0,0.3,0h0.1v1.9h-0.1c-0.1,0-0.2,0-0.3,0
				c0,0-0.1,0.1-0.1,0.2c0,0.1,0,0.1,0.1,0.2c0,0,0.1,0.1,0.2,0.1h0.8c0.1,0,0.2,0,0.2,0c0,0,0-0.1,0-0.2c0-0.1,0-0.1-0.1-0.2
				c0,0-0.1,0-0.2,0h-0.1v-1.6c0.1-0.1,0.1-0.2,0.2-0.2c0.1-0.1,0.2-0.1,0.2-0.1c0.1,0,0.2,0,0.3,0.1c0.1,0.1,0.1,0.2,0.1,0.3v0.2
				v1.2v0.1c0,0.1,0,0.2,0,0.3s0.1,0.1,0.2,0.1h0.4c0.1,0,0.1,0,0.2-0.1c0,0,0-0.1,0-0.2c0-0.1,0-0.1-0.1-0.2c0,0-0.1,0-0.2,0h-0.1
				v-1.2c0-0.2,0-0.4,0.1-0.5c0.1-0.1,0.2-0.2,0.3-0.2c0.1,0,0.2,0,0.3,0.1c0,0.1,0.1,0.3,0.1,0.6V14.2z"/>
			<path clip-path="url(#SVGID_2_)" fill="none" stroke="#FFFFFF" stroke-width="0.4" stroke-miterlimit="10" d="M97.9,11
				c-0.1,0-0.3,0-0.4,0c-0.5,0-0.9,0.2-1.2,0.5c-0.3,0.3-0.5,0.8-0.5,1.3c0,0.5,0.2,1,0.5,1.3c0.3,0.3,0.7,0.5,1.2,0.5
				c0.2,0,0.4,0,0.5-0.1c0.2,0,0.3-0.1,0.5-0.2c0.1-0.1,0.2-0.1,0.3-0.2c0-0.1,0.1-0.1,0.1-0.2c0-0.1,0-0.1-0.1-0.1
				c0,0-0.1-0.1-0.2-0.1c0,0-0.1,0-0.2,0.1c-0.1,0.1-0.2,0.1-0.2,0.1C98.1,14,98,14,97.9,14.1c-0.1,0-0.2,0-0.3,0
				c-0.3,0-0.6-0.1-0.8-0.4c-0.2-0.3-0.3-0.6-0.3-1c0-0.4,0.1-0.8,0.3-1s0.5-0.4,0.8-0.4c0.2,0,0.4,0,0.5,0.1
				c0.1,0.1,0.2,0.2,0.3,0.4c0,0,0,0.1,0,0.1c0,0.2,0.1,0.3,0.3,0.3c0.1,0,0.1,0,0.2,0c0,0,0-0.1,0-0.2c0,0,0-0.1,0-0.2
				c0-0.2,0-0.3,0-0.5c0-0.1,0-0.2,0-0.2c0,0-0.1-0.1-0.2-0.1c-0.1,0-0.1,0-0.2,0c0,0-0.1,0.1-0.1,0.1C98.2,11.1,98,11,97.9,11z"/>
			<path clip-path="url(#SVGID_2_)" fill="none" stroke="#FFFFFF" stroke-width="0.4" stroke-miterlimit="10" d="M101.7,14.3
				c0,0.1,0,0.1,0.1,0.1c0,0,0.1,0,0.1,0h0.5c0.1,0,0.1,0,0.2-0.1c0,0,0.1-0.1,0.1-0.2c0-0.1,0-0.1-0.1-0.2c0,0-0.1,0-0.3,0h-0.1
				v-1.3c0-0.3-0.1-0.6-0.3-0.8c-0.2-0.2-0.4-0.3-0.8-0.3c-0.3,0-0.6,0-0.8,0.1c-0.2,0.1-0.3,0.2-0.3,0.3c0,0.1,0,0.1,0.1,0.2
				c0,0,0.1,0.1,0.1,0.1c0.1,0,0.2,0,0.4-0.1c0.2-0.1,0.4-0.1,0.5-0.1c0.2,0,0.4,0.1,0.5,0.2c0.1,0.1,0.2,0.3,0.2,0.5v0
				c-0.1,0-0.2-0.1-0.4-0.1c-0.1,0-0.2,0-0.3,0c-0.4,0-0.8,0.1-1,0.3c-0.2,0.2-0.4,0.4-0.4,0.7c0,0.3,0.1,0.5,0.3,0.6
				c0.2,0.2,0.4,0.2,0.7,0.2c0.2,0,0.4,0,0.6-0.1c0.2-0.1,0.4-0.2,0.5-0.3L101.7,14.3z M101.7,13.5c0,0.1-0.1,0.3-0.3,0.4
				c-0.2,0.1-0.4,0.2-0.7,0.2c-0.2,0-0.3,0-0.4-0.1c-0.1-0.1-0.2-0.2-0.2-0.3c0-0.2,0.1-0.3,0.3-0.4c0.2-0.1,0.4-0.2,0.7-0.2
				c0.1,0,0.2,0,0.3,0c0.1,0,0.2,0,0.3,0.1V13.5z"/>
			<path clip-path="url(#SVGID_2_)" fill="none" stroke="#FFFFFF" stroke-width="0.4" stroke-miterlimit="10" d="M104.2,12v-0.6
				c0-0.2,0-0.3-0.1-0.3S104.1,11,104,11c-0.1,0-0.1,0-0.2,0.1c0,0-0.1,0.1-0.1,0.2v0.2V12h-0.3c-0.2,0-0.3,0-0.3,0
				c-0.1,0-0.1,0.1-0.1,0.2c0,0.1,0,0.1,0.1,0.2c0,0,0.1,0,0.2,0h0.5v1v0.1c0,0.2,0,0.3,0,0.4c0,0.1,0,0.2,0.1,0.2
				c0.1,0.1,0.2,0.3,0.3,0.3c0.2,0.1,0.3,0.1,0.6,0.1c0.1,0,0.3,0,0.4-0.1c0.2,0,0.3-0.1,0.5-0.2c0.1,0,0.2-0.1,0.2-0.1
				c0,0,0.1-0.1,0.1-0.2c0-0.1,0-0.1-0.1-0.1c0,0-0.1-0.1-0.1-0.1c-0.1,0-0.2,0.1-0.5,0.2c-0.2,0.1-0.5,0.2-0.6,0.2
				c-0.2,0-0.3-0.1-0.4-0.2c-0.1-0.1-0.1-0.3-0.1-0.6v-1h1.2c0.1,0,0.1,0,0.2-0.1c0,0,0.1-0.1,0.1-0.2c0-0.1,0-0.1-0.1-0.2
				c0,0-0.1-0.1-0.2-0.1H104.2z"/>
			<path clip-path="url(#SVGID_2_)" fill="none" stroke="#FFFFFF" stroke-width="0.4" stroke-miterlimit="10" d="M108.9,14.3
				c0,0.1,0,0.1,0.1,0.1c0,0,0.1,0,0.1,0h0.5c0.1,0,0.1,0,0.2-0.1c0,0,0.1-0.1,0.1-0.2c0-0.1,0-0.1-0.1-0.2c0,0-0.1,0-0.3,0h-0.1
				v-1.3c0-0.3-0.1-0.6-0.3-0.8c-0.2-0.2-0.4-0.3-0.8-0.3c-0.3,0-0.6,0-0.8,0.1c-0.2,0.1-0.3,0.2-0.3,0.3c0,0.1,0,0.1,0.1,0.2
				c0,0,0.1,0.1,0.1,0.1c0.1,0,0.2,0,0.4-0.1c0.2-0.1,0.4-0.1,0.5-0.1c0.2,0,0.4,0.1,0.5,0.2c0.1,0.1,0.2,0.3,0.2,0.5v0
				c-0.1,0-0.2-0.1-0.4-0.1c-0.1,0-0.2,0-0.3,0c-0.4,0-0.8,0.1-1,0.3c-0.2,0.2-0.4,0.4-0.4,0.7c0,0.3,0.1,0.5,0.3,0.6
				c0.2,0.2,0.4,0.2,0.7,0.2c0.2,0,0.4,0,0.6-0.1c0.2-0.1,0.4-0.2,0.5-0.3L108.9,14.3z M108.9,13.5c0,0.1-0.1,0.3-0.3,0.4
				c-0.2,0.1-0.4,0.2-0.7,0.2c-0.2,0-0.3,0-0.4-0.1c-0.1-0.1-0.2-0.2-0.2-0.3c0-0.2,0.1-0.3,0.3-0.4c0.2-0.1,0.4-0.2,0.7-0.2
				c0.1,0,0.2,0,0.3,0c0.1,0,0.2,0,0.3,0.1V13.5z"/>
			<path clip-path="url(#SVGID_2_)" fill="none" stroke="#FFFFFF" stroke-width="0.4" stroke-miterlimit="10" d="M111.6,14.1h-0.8
				c-0.1,0-0.1,0-0.2,0.1c0,0-0.1,0.1-0.1,0.2c0,0.1,0,0.1,0.1,0.2c0,0,0.1,0.1,0.2,0.1h2.2c0.1,0,0.2,0,0.2,0c0,0,0.1-0.1,0.1-0.2
				c0-0.1,0-0.1-0.1-0.2c0,0-0.1,0-0.2,0h-0.9v-3.3c0,0,0-0.1,0-0.1c0,0-0.1,0-0.1,0h-1c-0.1,0-0.1,0-0.2,0.1c0,0-0.1,0.1-0.1,0.2
				c0,0.1,0,0.1,0.1,0.2c0,0,0.2,0,0.4,0h0.5V14.1z"/>
			<path clip-path="url(#SVGID_2_)" fill="none" stroke="#FFFFFF" stroke-width="0.4" stroke-miterlimit="10" d="M116.5,12.1
				c-0.3-0.3-0.7-0.4-1.1-0.4c-0.5,0-0.8,0.1-1.1,0.4c-0.3,0.3-0.4,0.6-0.4,1c0,0.4,0.1,0.8,0.4,1c0.3,0.3,0.7,0.4,1.1,0.4
				c0.5,0,0.8-0.1,1.1-0.4c0.3-0.3,0.4-0.6,0.4-1C116.9,12.7,116.8,12.4,116.5,12.1z M114.7,13.9c-0.2-0.2-0.3-0.4-0.3-0.7
				c0-0.3,0.1-0.5,0.3-0.7c0.2-0.2,0.4-0.3,0.7-0.3c0.3,0,0.5,0.1,0.7,0.3c0.2,0.2,0.3,0.4,0.3,0.7c0,0.3-0.1,0.5-0.3,0.7
				c-0.2,0.2-0.4,0.3-0.7,0.3C115.1,14.2,114.9,14.1,114.7,13.9z"/>
			<path clip-path="url(#SVGID_2_)" fill="none" stroke="#FFFFFF" stroke-width="0.4" stroke-miterlimit="10" d="M120.2,12.2
				L120.2,12.2c0.2,0,0.3,0,0.3,0c0,0,0.1-0.1,0.1-0.2c0-0.1,0-0.1-0.1-0.2c0,0-0.1-0.1-0.2-0.1h-0.4c-0.1,0-0.1,0-0.1,0
				c0,0,0,0,0,0.1v0.2c-0.1-0.1-0.3-0.2-0.4-0.3c-0.1-0.1-0.3-0.1-0.4-0.1c-0.4,0-0.7,0.1-0.9,0.4c-0.2,0.2-0.4,0.6-0.4,0.9
				c0,0.4,0.1,0.7,0.4,0.9c0.2,0.2,0.5,0.4,0.9,0.4c0.2,0,0.4,0,0.5-0.1c0.1-0.1,0.3-0.2,0.4-0.3v0.4c0,0.3-0.1,0.5-0.2,0.7
				c-0.1,0.1-0.3,0.2-0.6,0.2c-0.1,0-0.1,0-0.2,0c-0.1,0-0.2,0-0.2,0c-0.1,0-0.1,0-0.2,0.1c-0.1,0-0.1,0.1-0.1,0.2
				c0,0.1,0.1,0.2,0.2,0.2c0.1,0,0.3,0.1,0.5,0.1c0.3,0,0.5,0,0.7-0.1c0.2-0.1,0.4-0.2,0.5-0.3c0.1-0.1,0.1-0.2,0.1-0.3
				c0-0.1,0-0.3,0-0.6V12.2z M119.5,12.5c0.2,0.2,0.2,0.4,0.2,0.6c0,0.2-0.1,0.5-0.2,0.6c-0.2,0.2-0.4,0.2-0.6,0.2
				c-0.3,0-0.5-0.1-0.6-0.2c-0.2-0.2-0.2-0.4-0.2-0.6c0-0.3,0.1-0.5,0.2-0.6c0.2-0.2,0.4-0.2,0.6-0.2
				C119.2,12.2,119.4,12.3,119.5,12.5z"/>
			<path clip-path="url(#SVGID_2_)" fill="none" stroke="#FFFFFF" stroke-width="0.4" stroke-miterlimit="10" d="M125.8,14.6
				c0.1,0,0.3,0.1,0.4,0.1c0.4,0,0.7-0.1,1-0.3c0.2-0.2,0.4-0.5,0.4-0.8c0-0.3-0.1-0.5-0.3-0.7c-0.2-0.2-0.4-0.3-0.8-0.3l-0.5-0.1
				c-0.2,0-0.4-0.1-0.5-0.2c-0.1-0.1-0.2-0.2-0.2-0.4c0-0.2,0.1-0.3,0.2-0.5c0.1-0.1,0.3-0.2,0.6-0.2c0.2,0,0.3,0,0.4,0.1
				c0.1,0.1,0.2,0.1,0.3,0.2c0,0,0.1,0.1,0.1,0.2c0.1,0.1,0.1,0.2,0.2,0.2c0.1,0,0.1,0,0.2-0.1c0,0,0.1-0.1,0.1-0.2v0l0-0.6
				c0-0.1,0-0.2-0.1-0.2c0,0-0.1,0-0.2,0c-0.1,0-0.1,0-0.1,0c0,0,0,0.1,0,0.1c-0.2-0.1-0.3-0.1-0.4-0.1c-0.1,0-0.2,0-0.3,0
				c-0.4,0-0.7,0.1-0.9,0.3s-0.4,0.5-0.4,0.8c0,0.3,0.1,0.5,0.3,0.7c0.2,0.2,0.5,0.3,0.9,0.3l0.4,0.1c0.2,0,0.3,0.1,0.4,0.2
				c0.1,0.1,0.1,0.2,0.1,0.4c0,0.2-0.1,0.3-0.2,0.5c-0.2,0.1-0.4,0.2-0.6,0.2c-0.2,0-0.4,0-0.5-0.1c-0.1-0.1-0.3-0.2-0.3-0.3
				c0,0,0-0.1-0.1-0.2c-0.1-0.2-0.1-0.3-0.3-0.3c-0.1,0-0.1,0-0.2,0.1c0,0-0.1,0.1-0.1,0.2v0.1l0,0.7c0,0.1,0,0.2,0.1,0.2
				c0,0,0.1,0.1,0.2,0.1c0.1,0,0.1,0,0.2-0.1c0,0,0.1-0.1,0.1-0.2C125.5,14.5,125.7,14.5,125.8,14.6z"/>
			<path clip-path="url(#SVGID_2_)" fill="none" stroke="#FFFFFF" stroke-width="0.4" stroke-miterlimit="10" d="M129.5,13.1
				l0.9,0.9c-0.1,0-0.1,0.1-0.2,0.1c0,0-0.1,0.1-0.1,0.1c0,0.1,0,0.1,0.1,0.1c0,0,0.1,0,0.2,0h0.8c0.1,0,0.1,0,0.2-0.1
				c0,0,0.1-0.1,0.1-0.2c0-0.1,0-0.1-0.1-0.2c0,0-0.1,0-0.2,0H131l-1.1-1.2l0.4-0.4c0.1-0.1,0.2-0.2,0.3-0.2
				c0.1-0.1,0.2-0.1,0.3-0.1c0,0,0.1,0,0.1,0c0.2,0,0.3-0.1,0.3-0.2c0-0.1,0-0.1-0.1-0.1c0,0-0.1,0-0.2,0h-0.8c-0.1,0-0.1,0-0.2,0
				c0,0-0.1,0.1-0.1,0.1c0,0,0,0.1,0,0.1c0,0,0.1,0.1,0.1,0.1l-0.8,0.7v-2.1c0,0,0-0.1,0-0.1c0,0-0.1,0-0.1,0h-0.6
				c-0.1,0-0.1,0-0.2,0.1c0,0-0.1,0.1-0.1,0.2c0,0.1,0,0.1,0.1,0.2c0,0,0.2,0,0.3,0h0.1v3h-0.1c-0.2,0-0.2,0-0.3,0
				c0,0-0.1,0.1-0.1,0.2c0,0.1,0,0.1,0.1,0.2c0,0,0.1,0.1,0.2,0.1h0.5c0.1,0,0.1,0,0.1-0.1s0-0.1,0-0.2v-0.9L129.5,13.1z"/>
			<path clip-path="url(#SVGID_2_)" fill="none" stroke="#FFFFFF" stroke-width="0.4" stroke-miterlimit="10" d="M132.8,12.3
				c0.2-0.1,0.4-0.2,0.7-0.2c0.2,0,0.4,0.1,0.6,0.2c0.2,0.1,0.3,0.3,0.3,0.6h-1.9C132.5,12.6,132.6,12.5,132.8,12.3z M134.4,13.3
				L134.4,13.3c0.2,0,0.4,0,0.4-0.1c0,0,0.1-0.1,0.1-0.2c0-0.4-0.1-0.7-0.4-0.9c-0.3-0.2-0.6-0.4-1-0.4c-0.5,0-0.8,0.1-1.1,0.4
				c-0.3,0.3-0.4,0.6-0.4,1c0,0.4,0.1,0.8,0.4,1c0.3,0.3,0.6,0.4,1.1,0.4c0.2,0,0.4,0,0.6-0.1c0.2-0.1,0.4-0.1,0.6-0.2
				c0.1,0,0.2-0.1,0.2-0.1s0.1-0.1,0.1-0.2c0-0.1,0-0.1-0.1-0.1c0,0-0.1-0.1-0.1-0.1c-0.1,0-0.2,0.1-0.5,0.2
				c-0.3,0.1-0.5,0.2-0.7,0.2c-0.3,0-0.5-0.1-0.7-0.2c-0.2-0.2-0.3-0.4-0.3-0.7H134.4z"/>
			<path clip-path="url(#SVGID_2_)" fill="none" stroke="#FFFFFF" stroke-width="0.4" stroke-miterlimit="10" d="M136.7,12v-0.6
				c0-0.2,0-0.3-0.1-0.3c0,0-0.1-0.1-0.2-0.1c-0.1,0-0.1,0-0.2,0.1c0,0-0.1,0.1-0.1,0.2v0.2V12h-0.3c-0.2,0-0.3,0-0.3,0
				c-0.1,0-0.1,0.1-0.1,0.2c0,0.1,0,0.1,0.1,0.2c0,0,0.1,0,0.2,0h0.5v1v0.1c0,0.2,0,0.3,0,0.4c0,0.1,0,0.2,0.1,0.2
				c0.1,0.1,0.2,0.3,0.3,0.3c0.2,0.1,0.3,0.1,0.6,0.1c0.1,0,0.3,0,0.4-0.1c0.2,0,0.3-0.1,0.5-0.2c0.1,0,0.2-0.1,0.2-0.1
				c0,0,0.1-0.1,0.1-0.2c0-0.1,0-0.1-0.1-0.1c0,0-0.1-0.1-0.1-0.1c-0.1,0-0.2,0.1-0.5,0.2c-0.2,0.1-0.5,0.2-0.6,0.2
				c-0.2,0-0.3-0.1-0.4-0.2c-0.1-0.1-0.1-0.3-0.1-0.6v-1h1.2c0.1,0,0.1,0,0.2-0.1c0,0,0.1-0.1,0.1-0.2c0-0.1,0-0.1-0.1-0.2
				c0,0-0.1-0.1-0.2-0.1H136.7z"/>
			<path clip-path="url(#SVGID_2_)" fill="none" stroke="#FFFFFF" stroke-width="0.4" stroke-miterlimit="10" d="M141,11.8
				c-0.1,0-0.3-0.1-0.4-0.1c-0.4,0-0.8,0.1-1.1,0.4c-0.3,0.3-0.4,0.6-0.4,1c0,0.4,0.1,0.7,0.4,1c0.3,0.3,0.6,0.4,1.1,0.4
				c0.3,0,0.6-0.1,0.9-0.2c0.3-0.2,0.4-0.3,0.4-0.5c0-0.1,0-0.1-0.1-0.1c0,0-0.1-0.1-0.1-0.1c-0.1,0-0.2,0.1-0.3,0.2
				c-0.1,0-0.1,0.1-0.1,0.1c-0.1,0.1-0.2,0.1-0.3,0.2c-0.1,0-0.2,0.1-0.4,0.1c-0.3,0-0.5-0.1-0.7-0.3c-0.2-0.2-0.3-0.4-0.3-0.7
				c0-0.3,0.1-0.5,0.3-0.7c0.2-0.2,0.4-0.3,0.7-0.3c0.2,0,0.3,0,0.5,0.1s0.2,0.2,0.3,0.4c0.1,0.1,0.1,0.2,0.1,0.2c0,0,0.1,0,0.1,0
				c0.1,0,0.1,0,0.2-0.1c0,0,0.1-0.1,0.1-0.2v-0.5c0-0.1,0-0.2,0-0.3s-0.1-0.1-0.2-0.1c-0.1,0-0.1,0-0.2,0c0,0-0.1,0.1-0.1,0.1v0
				C141.3,11.9,141.2,11.8,141,11.8z"/>
			<path clip-path="url(#SVGID_2_)" fill="none" stroke="#FFFFFF" stroke-width="0.4" stroke-miterlimit="10" d="M143,14.1
				c-0.1,0-0.2,0-0.3,0c0,0-0.1,0.1-0.1,0.2c0,0.1,0,0.1,0.1,0.2c0,0,0.1,0.1,0.2,0.1h0.8c0.1,0,0.2,0,0.2,0c0,0,0-0.1,0-0.2
				c0-0.1,0-0.1-0.1-0.2c0,0-0.1,0-0.2,0h-0.1v-1.2c0-0.2,0.1-0.4,0.2-0.5c0.2-0.1,0.3-0.2,0.5-0.2c0.2,0,0.3,0.1,0.5,0.2
				c0.1,0.1,0.2,0.3,0.2,0.5v1.2h-0.1c-0.1,0-0.2,0-0.2,0c0,0-0.1,0.1-0.1,0.2c0,0.1,0,0.1,0,0.2c0,0,0.1,0,0.2,0h0.8
				c0.1,0,0.1,0,0.2-0.1c0,0,0.1-0.1,0.1-0.2s0-0.1-0.1-0.2c0,0-0.1,0-0.2,0h-0.1v-1.3c0-0.3-0.1-0.6-0.3-0.8
				c-0.2-0.2-0.4-0.3-0.7-0.3c-0.2,0-0.3,0-0.4,0.1c-0.1,0.1-0.3,0.2-0.4,0.3v-1.3c0,0,0-0.1,0-0.1c0,0-0.1,0-0.1,0h-0.4
				c-0.1,0-0.1,0-0.2,0.1c0,0-0.1,0.1-0.1,0.2c0,0.1,0,0.1,0.1,0.2c0.1,0,0.1,0,0.3,0h0.1L143,14.1L143,14.1z"/>
			<path clip-path="url(#SVGID_2_)" fill="none" stroke="#FFFFFF" stroke-width="0.4" stroke-miterlimit="10" d="M151.8,11.8
				c-0.1,0-0.3-0.1-0.4-0.1c-0.4,0-0.8,0.1-1.1,0.4c-0.3,0.3-0.4,0.6-0.4,1c0,0.4,0.1,0.7,0.4,1c0.3,0.3,0.6,0.4,1.1,0.4
				c0.3,0,0.6-0.1,0.9-0.2c0.3-0.2,0.4-0.3,0.4-0.5c0-0.1,0-0.1-0.1-0.1c0,0-0.1-0.1-0.1-0.1c-0.1,0-0.2,0.1-0.3,0.2
				c-0.1,0-0.1,0.1-0.1,0.1c-0.1,0.1-0.2,0.1-0.3,0.2c-0.1,0-0.2,0.1-0.4,0.1c-0.3,0-0.5-0.1-0.7-0.3c-0.2-0.2-0.3-0.4-0.3-0.7
				c0-0.3,0.1-0.5,0.3-0.7c0.2-0.2,0.4-0.3,0.7-0.3c0.2,0,0.3,0,0.5,0.1s0.2,0.2,0.3,0.4c0.1,0.1,0.1,0.2,0.1,0.2c0,0,0.1,0,0.1,0
				c0.1,0,0.1,0,0.2-0.1c0,0,0.1-0.1,0.1-0.2v-0.5c0-0.1,0-0.2,0-0.3s-0.1-0.1-0.2-0.1c-0.1,0-0.1,0-0.2,0c0,0-0.1,0.1-0.1,0.1v0
				C152.1,11.9,152,11.8,151.8,11.8z"/>
			<path clip-path="url(#SVGID_2_)" fill="none" stroke="#FFFFFF" stroke-width="0.4" stroke-miterlimit="10" d="M156.1,12.1
				c-0.3-0.3-0.7-0.4-1.1-0.4s-0.8,0.1-1.1,0.4c-0.3,0.3-0.4,0.6-0.4,1c0,0.4,0.1,0.8,0.4,1c0.3,0.3,0.7,0.4,1.1,0.4
				c0.5,0,0.8-0.1,1.1-0.4c0.3-0.3,0.4-0.6,0.4-1C156.5,12.7,156.4,12.4,156.1,12.1z M154.3,13.9c-0.2-0.2-0.3-0.4-0.3-0.7
				c0-0.3,0.1-0.5,0.3-0.7c0.2-0.2,0.4-0.3,0.7-0.3s0.5,0.1,0.7,0.3c0.2,0.2,0.3,0.4,0.3,0.7c0,0.3-0.1,0.5-0.3,0.7
				c-0.2,0.2-0.4,0.3-0.7,0.3S154.5,14.1,154.3,13.9z"/>
			<path clip-path="url(#SVGID_2_)" fill="none" stroke="#FFFFFF" stroke-width="0.4" stroke-miterlimit="10" d="M158.1,13.8
				c-0.2-0.2-0.3-0.4-0.3-0.7c0-0.3,0.1-0.5,0.3-0.7c0.2-0.2,0.4-0.3,0.7-0.3c0.3,0,0.5,0.1,0.7,0.3c0.2,0.2,0.3,0.4,0.3,0.7
				c0,0.3-0.1,0.5-0.3,0.7c-0.2,0.2-0.4,0.3-0.7,0.3C158.5,14.1,158.3,14,158.1,13.8z M157.9,14.1c0.1,0.1,0.3,0.2,0.4,0.3
				c0.2,0.1,0.4,0.1,0.6,0.1c0.4,0,0.7-0.1,1-0.4s0.4-0.6,0.4-0.9c0-0.4-0.1-0.7-0.4-1c-0.3-0.3-0.6-0.4-1-0.4c-0.2,0-0.4,0-0.5,0.1
				c-0.2,0.1-0.3,0.2-0.4,0.3v-0.3c0,0,0-0.1,0-0.1c0,0-0.1,0-0.1,0h-0.4c-0.1,0-0.1,0-0.2,0.1c0,0-0.1,0.1-0.1,0.2
				c0,0.1,0,0.1,0.1,0.2s0.1,0,0.3,0h0.1v3h-0.1c-0.1,0-0.2,0-0.3,0c-0.1,0-0.1,0.1-0.1,0.2c0,0.1,0,0.1,0.1,0.2
				c0,0,0.1,0.1,0.2,0.1h1.3c0.1,0,0.2,0,0.2,0c0,0,0.1-0.1,0.1-0.2c0-0.1,0-0.1-0.1-0.2c0,0-0.1-0.1-0.2-0.1h-0.7V14.1z"/>
			<path clip-path="url(#SVGID_2_)" fill="none" stroke="#FFFFFF" stroke-width="0.4" stroke-miterlimit="10" d="M163.5,12.2
				c0.1,0,0.2,0,0.2-0.1c0,0,0.1-0.1,0.1-0.2c0-0.1,0-0.1-0.1-0.2s-0.1-0.1-0.2-0.1h-0.7c-0.1,0-0.2,0-0.2,0c0,0-0.1,0.1-0.1,0.2
				c0,0.1,0,0.1,0.1,0.2c0.1,0,0.1,0,0.3,0h0.1l-0.8,1.6l-0.8-1.6h0.1c0.1,0,0.2,0,0.3,0c0,0,0.1-0.1,0.1-0.2c0-0.1,0-0.1-0.1-0.2
				c0,0-0.1,0-0.2,0h-0.8c-0.1,0-0.1,0-0.2,0.1c0,0-0.1,0.1-0.1,0.2c0,0.1,0,0.1,0.1,0.2c0,0,0.1,0,0.3,0l1.1,2.1l-0.5,0.9h-0.6
				c-0.1,0-0.1,0-0.2,0.1c0,0-0.1,0.1-0.1,0.2c0,0.1,0,0.1,0.1,0.2c0,0,0.1,0,0.2,0h1.4c0.1,0,0.1,0,0.2-0.1c0,0,0.1-0.1,0.1-0.2
				c0-0.1,0-0.1-0.1-0.2c-0.1,0-0.1,0-0.3,0H162L163.5,12.2z"/>
			<path clip-path="url(#SVGID_2_)" fill="none" stroke="#FFFFFF" stroke-width="0.4" stroke-miterlimit="10" d="M165.4,14.4
				c0.1,0.1,0.2,0.1,0.4,0.1c0.2,0,0.3,0,0.4-0.1c0.1-0.1,0.2-0.2,0.2-0.4s-0.1-0.3-0.2-0.4c-0.1-0.1-0.2-0.1-0.4-0.1
				c-0.2,0-0.3,0-0.4,0.1c-0.1,0.1-0.2,0.2-0.2,0.4C165.2,14.2,165.3,14.3,165.4,14.4z"/>
			<path clip-path="url(#SVGID_2_)" fill="none" stroke="#FFFFFF" stroke-width="0.4" stroke-miterlimit="10" d="M168.9,13.8
				c-0.2-0.2-0.3-0.4-0.3-0.7c0-0.3,0.1-0.5,0.3-0.7c0.2-0.2,0.4-0.3,0.7-0.3c0.3,0,0.5,0.1,0.7,0.3c0.2,0.2,0.3,0.4,0.3,0.7
				c0,0.3-0.1,0.5-0.3,0.7c-0.2,0.2-0.4,0.3-0.7,0.3C169.3,14.1,169.1,14,168.9,13.8z M168.7,14.1c0.1,0.1,0.3,0.2,0.4,0.3
				c0.2,0.1,0.4,0.1,0.6,0.1c0.4,0,0.7-0.1,1-0.4s0.4-0.6,0.4-0.9c0-0.4-0.1-0.7-0.4-1c-0.3-0.3-0.6-0.4-1-0.4c-0.2,0-0.4,0-0.5,0.1
				c-0.2,0.1-0.3,0.2-0.4,0.3v-0.3c0,0,0-0.1,0-0.1c0,0-0.1,0-0.1,0H168c-0.1,0-0.1,0-0.2,0.1c0,0-0.1,0.1-0.1,0.2
				c0,0.1,0,0.1,0.1,0.2s0.1,0,0.3,0h0.1v3h-0.1c-0.1,0-0.2,0-0.3,0c-0.1,0-0.1,0.1-0.1,0.2c0,0.1,0,0.1,0.1,0.2
				c0,0,0.1,0.1,0.2,0.1h1.3c0.1,0,0.2,0,0.2,0c0,0,0.1-0.1,0.1-0.2c0-0.1,0-0.1-0.1-0.2c0,0-0.1-0.1-0.2-0.1h-0.7V14.1z"/>
			<path clip-path="url(#SVGID_2_)" fill="none" stroke="#FFFFFF" stroke-width="0.4" stroke-miterlimit="10" d="M172.2,12.5
				c0.2-0.2,0.4-0.3,0.7-0.3c0.3,0,0.5,0.1,0.7,0.3c0.2,0.2,0.3,0.4,0.3,0.7c0,0.3-0.1,0.5-0.3,0.7c-0.2,0.2-0.4,0.3-0.7,0.3
				c-0.3,0-0.5-0.1-0.7-0.3c-0.2-0.2-0.3-0.4-0.3-0.7C172,12.9,172.1,12.7,172.2,12.5z M174.5,14.5c0.1,0,0.1,0,0.1-0.1
				c0,0,0.1-0.1,0.1-0.2c0-0.1,0-0.1-0.1-0.2c0,0-0.1,0-0.2,0h-0.1v-3.3c0,0,0-0.1,0-0.1c0,0-0.1,0-0.1,0h-0.6c-0.1,0-0.1,0-0.2,0.1
				c0,0-0.1,0.1-0.1,0.2c0,0.1,0,0.1,0.1,0.2c0,0,0.2,0,0.3,0h0.2v1.1c-0.1-0.1-0.3-0.2-0.4-0.3s-0.3-0.1-0.5-0.1
				c-0.4,0-0.7,0.1-1,0.4c-0.3,0.3-0.4,0.6-0.4,1c0,0.4,0.1,0.7,0.4,1c0.2,0.3,0.6,0.4,0.9,0.4c0.2,0,0.4,0,0.6-0.1
				c0.2-0.1,0.3-0.2,0.4-0.3v0.2c0,0.1,0,0.1,0,0.1c0,0,0,0,0.1,0H174.5z"/>
			<path clip-path="url(#SVGID_2_)" fill="none" stroke="#FFFFFF" stroke-width="0.4" stroke-miterlimit="10" d="M176.6,14.1v-1.8h1
				c0.1,0,0.1,0,0.2-0.1c0,0,0.1-0.1,0.1-0.2c0-0.1,0-0.1-0.1-0.2c0,0-0.1-0.1-0.2-0.1h-1v-0.2c0-0.2,0-0.4,0.1-0.5
				c0.1-0.1,0.3-0.1,0.5-0.1c0.1,0,0.2,0,0.3,0c0.1,0,0.2,0,0.3,0c0.1,0,0.1,0,0.2-0.1S178,11,178,11c0-0.1-0.1-0.2-0.2-0.2
				c-0.1,0-0.3-0.1-0.5-0.1c-0.4,0-0.8,0.1-1,0.2c-0.2,0.2-0.3,0.4-0.3,0.8v0.2h-0.5c-0.1,0-0.1,0-0.2,0.1c0,0-0.1,0.1-0.1,0.2
				c0,0.1,0,0.1,0.1,0.2c0,0,0.1,0.1,0.2,0.1h0.5v1.8h-0.5c-0.1,0-0.1,0-0.2,0.1c0,0-0.1,0.1-0.1,0.2c0,0.1,0,0.1,0.1,0.2
				c0,0,0.1,0.1,0.2,0.1h1.9c0.1,0,0.1,0,0.2-0.1c0,0,0.1-0.1,0.1-0.2c0-0.1,0-0.1-0.1-0.2c0,0-0.1-0.1-0.2-0.1H176.6z"/>
			<path clip-path="url(#SVGID_2_)" fill="none" stroke="#FFFFFF" stroke-width="0.4" stroke-miterlimit="10" d="M190.7,11.6
				c0.2-0.3,0.4-0.4,0.8-0.5c0.1,0,0.2,0,0.4,0c0.2,0,0.3-0.1,0.3-0.2c0-0.1,0-0.1-0.1-0.2c-0.1,0-0.2,0-0.4,0c-0.6,0-1,0.2-1.4,0.6
				c-0.3,0.4-0.5,0.9-0.5,1.6c0,0.5,0.1,0.9,0.3,1.2c0.2,0.3,0.5,0.5,0.9,0.5c0.3,0,0.6-0.1,0.8-0.3c0.2-0.2,0.3-0.5,0.3-0.9
				c0-0.3-0.1-0.6-0.3-0.9c-0.2-0.2-0.5-0.3-0.8-0.3c-0.2,0-0.3,0-0.4,0.1c-0.1,0.1-0.2,0.2-0.4,0.3
				C190.4,12.2,190.5,11.8,190.7,11.6z M190.6,12.8c0.1-0.1,0.3-0.2,0.5-0.2c0.2,0,0.4,0.1,0.5,0.2c0.1,0.1,0.2,0.3,0.2,0.6
				c0,0.2-0.1,0.4-0.2,0.6c-0.1,0.1-0.3,0.2-0.5,0.2c-0.2,0-0.4-0.1-0.5-0.2c-0.1-0.2-0.2-0.3-0.2-0.6
				C190.4,13.1,190.4,13,190.6,12.8z"/>
			<path clip-path="url(#SVGID_2_)" fill="none" stroke="#FFFFFF" stroke-width="0.4" stroke-miterlimit="10" d="M205.3,11.2v2.9
				h-0.5c-0.2,0-0.3,0-0.3,0c0,0-0.1,0.1-0.1,0.2c0,0.1,0,0.1,0.1,0.2c0,0,0.1,0.1,0.2,0.1h1.8c0.1,0,0.1,0,0.2-0.1
				c0,0,0.1-0.1,0.1-0.2c0-0.1,0-0.1-0.1-0.2c0,0-0.2,0-0.3,0h-0.5v-3.2c0-0.1,0-0.1,0-0.1c0,0-0.1-0.1-0.1-0.1c0,0,0,0-0.1,0
				c0,0,0,0-0.1,0l-0.9,0.2c-0.1,0-0.1,0-0.1,0.1c0,0,0,0.1,0,0.1c0,0.1,0,0.1,0.1,0.1c0,0,0.1,0.1,0.1,0.1c0,0,0,0,0,0
				c0,0,0,0,0.1,0L205.3,11.2z"/>
			<path clip-path="url(#SVGID_2_)" fill="none" stroke="#FFFFFF" stroke-width="0.4" stroke-miterlimit="10" d="M209.9,14.1
				c0.2-0.3,0.3-0.8,0.3-1.4c0-0.6-0.1-1.1-0.3-1.4c-0.2-0.3-0.5-0.5-0.9-0.5c-0.4,0-0.7,0.2-0.9,0.5c-0.2,0.3-0.3,0.8-0.3,1.4
				c0,0.6,0.1,1.1,0.3,1.4c0.2,0.3,0.5,0.5,0.9,0.5C209.4,14.6,209.7,14.4,209.9,14.1z M209.5,11.5c0.1,0.3,0.2,0.6,0.2,1.1
				c0,0.5-0.1,0.9-0.2,1.1c-0.1,0.3-0.3,0.4-0.5,0.4c-0.2,0-0.4-0.1-0.5-0.4c-0.1-0.3-0.2-0.6-0.2-1.1c0-0.5,0.1-0.9,0.2-1.1
				c0.1-0.3,0.3-0.4,0.5-0.4C209.2,11.1,209.4,11.3,209.5,11.5z"/>
			<path clip-path="url(#SVGID_2_)" fill="none" stroke="#FFFFFF" stroke-width="0.4" stroke-miterlimit="10" d="M213.8,10.6
				C213.8,10.6,213.8,10.6,213.8,10.6c0-0.1,0-0.1,0-0.1c0-0.1,0-0.1-0.1-0.1s-0.1-0.1-0.1-0.1c-0.1,0-0.1,0-0.1,0.1
				c0,0-0.1,0.1-0.1,0.2l-1.8,3.9c0,0,0,0,0,0.1c0,0,0,0,0,0.1c0,0.1,0,0.1,0.1,0.1c0,0,0.1,0.1,0.1,0.1c0.1,0,0.1,0,0.1-0.1
				c0,0,0.1-0.1,0.1-0.2L213.8,10.6z"/>
			<path clip-path="url(#SVGID_2_)" fill="none" stroke="#FFFFFF" stroke-width="0.4" stroke-miterlimit="10" d="M217.1,12.2
				c0.1-0.1,0.1-0.3,0.1-0.5c0-0.3-0.1-0.5-0.3-0.7s-0.5-0.3-0.8-0.3c-0.3,0-0.5,0.1-0.7,0.2c-0.2,0.1-0.3,0.2-0.3,0.4
				c0,0.1,0,0.1,0.1,0.1c0,0,0.1,0.1,0.1,0.1c0,0,0.2-0.1,0.3-0.2c0.2-0.1,0.3-0.2,0.5-0.2c0.2,0,0.3,0.1,0.4,0.2s0.2,0.3,0.2,0.5
				c0,0.1,0,0.3-0.1,0.4c-0.1,0.1-0.2,0.2-0.4,0.2c0,0-0.1,0-0.2,0c-0.2,0-0.2,0.1-0.2,0.2c0,0.1,0.1,0.2,0.2,0.2c0.1,0,0.2,0,0.2,0
				c0.2,0,0.3,0.1,0.4,0.2s0.2,0.3,0.2,0.4c0,0.2-0.1,0.4-0.2,0.5c-0.1,0.1-0.3,0.2-0.6,0.2c-0.2,0-0.4,0-0.6-0.2
				c-0.2-0.1-0.3-0.1-0.4-0.1c-0.1,0-0.1,0-0.2,0.1c0,0-0.1,0.1-0.1,0.1c0,0.1,0.1,0.3,0.3,0.4c0.2,0.1,0.5,0.2,0.8,0.2
				c0.4,0,0.7-0.1,0.9-0.3c0.2-0.2,0.4-0.5,0.4-0.8c0-0.2-0.1-0.4-0.2-0.6c-0.1-0.2-0.3-0.3-0.5-0.3C216.9,12.4,217,12.3,217.1,12.2
				z"/>
			<path clip-path="url(#SVGID_2_)" fill="none" stroke="#FFFFFF" stroke-width="0.4" stroke-miterlimit="10" d="M219.7,11.2v2.9
				h-0.5c-0.2,0-0.3,0-0.3,0c0,0-0.1,0.1-0.1,0.2c0,0.1,0,0.1,0.1,0.2c0,0,0.1,0.1,0.2,0.1h1.8c0.1,0,0.1,0,0.2-0.1
				c0,0,0.1-0.1,0.1-0.2c0-0.1,0-0.1-0.1-0.2c0,0-0.2,0-0.3,0h-0.5v-3.2c0-0.1,0-0.1,0-0.1c0,0-0.1-0.1-0.1-0.1c0,0,0,0-0.1,0
				c0,0,0,0-0.1,0L219,11c-0.1,0-0.1,0-0.1,0.1c0,0,0,0.1,0,0.1c0,0.1,0,0.1,0.1,0.1c0,0,0.1,0.1,0.1,0.1c0,0,0,0,0,0c0,0,0,0,0.1,0
				L219.7,11.2z"/>
			<path clip-path="url(#SVGID_2_)" fill="none" stroke="#FFFFFF" stroke-width="0.4" stroke-miterlimit="10" d="M224.6,10.6
				C224.6,10.6,224.6,10.6,224.6,10.6c0-0.1,0-0.1,0-0.1c0-0.1,0-0.1-0.1-0.1s-0.1-0.1-0.1-0.1c-0.1,0-0.1,0-0.1,0.1
				c0,0-0.1,0.1-0.1,0.2l-1.8,3.9c0,0,0,0,0,0.1c0,0,0,0,0,0.1c0,0.1,0,0.1,0.1,0.1c0,0,0.1,0.1,0.1,0.1c0.1,0,0.1,0,0.1-0.1
				c0,0,0.1-0.1,0.1-0.2L224.6,10.6z"/>
			<path clip-path="url(#SVGID_2_)" fill="none" stroke="#FFFFFF" stroke-width="0.4" stroke-miterlimit="10" d="M226.9,11.2v2.9
				h-0.5c-0.2,0-0.3,0-0.3,0c0,0-0.1,0.1-0.1,0.2c0,0.1,0,0.1,0.1,0.2c0,0,0.1,0.1,0.2,0.1h1.8c0.1,0,0.1,0,0.2-0.1
				c0,0,0.1-0.1,0.1-0.2c0-0.1,0-0.1-0.1-0.2c0,0-0.2,0-0.3,0h-0.5v-3.2c0-0.1,0-0.1,0-0.1c0,0-0.1-0.1-0.1-0.1c0,0,0,0-0.1,0
				c0,0,0,0-0.1,0l-0.9,0.2c-0.1,0-0.1,0-0.1,0.1c0,0,0,0.1,0,0.1c0,0.1,0,0.1,0.1,0.1c0,0,0.1,0.1,0.1,0.1c0,0,0,0,0,0
				c0,0,0,0,0.1,0L226.9,11.2z"/>
			<path clip-path="url(#SVGID_2_)" fill="none" stroke="#FFFFFF" stroke-width="0.4" stroke-miterlimit="10" d="M231.5,14.5
				c0.1,0,0.1,0,0.2-0.1c0,0,0.1-0.1,0.1-0.2c0-0.1,0-0.1-0.1-0.2c0,0-0.1,0-0.3,0h-0.1v-0.5h0.2c0.1,0,0.1,0,0.1,0
				c0,0,0-0.1,0.1-0.1l0-0.1c0,0,0,0,0,0s0,0,0,0c0,0,0-0.1,0-0.1c0,0-0.1,0-0.1,0c0,0-0.1,0-0.1,0.1c0,0-0.1,0.1-0.1,0.1h-0.1v-2.2
				c0,0,0-0.1,0-0.1c0,0,0,0-0.1,0l-0.3,0c0,0,0,0,0,0c0,0-0.1,0-0.1,0c0,0-0.1,0-0.1,0c0,0,0,0-0.1,0.1l-1.2,2.1c0,0,0,0,0,0
				c-0.1,0.1-0.1,0.2-0.1,0.2v0.2c0,0.1,0,0.1,0,0.1c0,0,0.1,0,0.1,0h1.4v0.5h-0.3c-0.1,0-0.1,0-0.2,0s-0.1,0.1-0.1,0.2
				c0,0.1,0,0.1,0.1,0.2c0,0,0.1,0,0.2,0H231.5z M229.8,13.1l1.1-2v2H229.8z"/>
			<path clip-path="url(#SVGID_2_)" fill="none" stroke="#FFFFFF" stroke-width="0.4" stroke-miterlimit="10" d="M246.1,11.3
				c0-0.1,0-0.1,0-0.2c0,0,0-0.1,0-0.1V11c0-0.1,0-0.1,0-0.1c0,0-0.1,0-0.1,0h-1.9c-0.1,0-0.1,0-0.1,0s-0.1,0.1-0.1,0.1l0,0.3
				c0,0,0,0,0,0c0,0,0,0,0,0c0,0.1,0,0.1,0,0.2c0,0,0.1,0.1,0.1,0.1c0.1,0,0.1,0,0.2-0.1c0,0,0.1-0.1,0.1-0.2h1.5l-1.2,3.1
				c0,0,0,0,0,0.1c0,0,0,0,0,0c0,0,0,0,0,0.1c0,0,0.1,0,0.1,0h0.2h0c0,0,0.1,0,0.1,0c0,0,0,0,0-0.1L246.1,11.3z"/>
			<path clip-path="url(#SVGID_2_)" fill="none" stroke="#FFFFFF" stroke-width="0.4" stroke-miterlimit="10" d="M248.2,14.4
				c0.1,0.1,0.2,0.1,0.4,0.1c0.2,0,0.3,0,0.4-0.1c0.1-0.1,0.2-0.2,0.2-0.4c0-0.2-0.1-0.3-0.2-0.4c-0.1-0.1-0.2-0.1-0.4-0.1
				c-0.2,0-0.3,0-0.4,0.1c-0.1,0.1-0.2,0.2-0.2,0.4C248.1,14.2,248.1,14.3,248.2,14.4z M248.2,12.8c0.1,0.1,0.2,0.1,0.4,0.1
				c0.2,0,0.3,0,0.4-0.1c0.1-0.1,0.2-0.2,0.2-0.4s-0.1-0.3-0.2-0.4c-0.1-0.1-0.2-0.1-0.4-0.1c-0.2,0-0.3,0-0.4,0.1
				c-0.1,0.1-0.2,0.2-0.2,0.4C248.1,12.6,248.1,12.7,248.2,12.8z"/>
			<path clip-path="url(#SVGID_2_)" fill="none" stroke="#FFFFFF" stroke-width="0.4" stroke-miterlimit="10" d="M253.1,14.1
				c0.2-0.3,0.3-0.8,0.3-1.4c0-0.6-0.1-1.1-0.3-1.4c-0.2-0.3-0.5-0.5-0.9-0.5c-0.4,0-0.7,0.2-0.9,0.5c-0.2,0.3-0.3,0.8-0.3,1.4
				c0,0.6,0.1,1.1,0.3,1.4c0.2,0.3,0.5,0.5,0.9,0.5C252.6,14.6,252.9,14.4,253.1,14.1z M252.8,11.5c0.1,0.3,0.2,0.6,0.2,1.1
				c0,0.5-0.1,0.9-0.2,1.1c-0.1,0.3-0.3,0.4-0.5,0.4c-0.2,0-0.4-0.1-0.5-0.4c-0.1-0.3-0.2-0.6-0.2-1.1c0-0.5,0.1-0.9,0.2-1.1
				c0.1-0.3,0.3-0.4,0.5-0.4C252.5,11.1,252.6,11.3,252.8,11.5z"/>
			<path clip-path="url(#SVGID_2_)" fill="none" stroke="#FFFFFF" stroke-width="0.4" stroke-miterlimit="10" d="M256.7,12.2
				c0.1-0.1,0.1-0.3,0.1-0.5c0-0.3-0.1-0.5-0.3-0.7s-0.5-0.3-0.8-0.3c-0.3,0-0.5,0.1-0.7,0.2c-0.2,0.1-0.3,0.2-0.3,0.4
				c0,0.1,0,0.1,0.1,0.1c0,0,0.1,0.1,0.1,0.1c0,0,0.2-0.1,0.3-0.2c0.2-0.1,0.3-0.2,0.5-0.2c0.2,0,0.3,0.1,0.4,0.2
				c0.1,0.1,0.2,0.3,0.2,0.5c0,0.1,0,0.3-0.1,0.4c-0.1,0.1-0.2,0.2-0.4,0.2c0,0-0.1,0-0.2,0c-0.2,0-0.2,0.1-0.2,0.2
				c0,0.1,0.1,0.2,0.2,0.2c0.1,0,0.2,0,0.2,0c0.2,0,0.3,0.1,0.4,0.2c0.1,0.1,0.2,0.3,0.2,0.4c0,0.2-0.1,0.4-0.2,0.5
				c-0.1,0.1-0.3,0.2-0.6,0.2c-0.2,0-0.4,0-0.6-0.2c-0.2-0.1-0.3-0.1-0.4-0.1c-0.1,0-0.1,0-0.2,0.1c0,0-0.1,0.1-0.1,0.1
				c0,0.1,0.1,0.3,0.3,0.4c0.2,0.1,0.5,0.2,0.8,0.2c0.4,0,0.7-0.1,0.9-0.3c0.2-0.2,0.4-0.5,0.4-0.8c0-0.2-0.1-0.4-0.2-0.6
				c-0.1-0.2-0.3-0.3-0.5-0.3C256.5,12.4,256.6,12.3,256.7,12.2z"/>
			<path clip-path="url(#SVGID_2_)" fill="none" stroke="#FFFFFF" stroke-width="0.4" stroke-miterlimit="10" d="M262.5,14.1v-0.9
				h0.5c0.5,0,0.8-0.1,1.1-0.3c0.2-0.2,0.4-0.5,0.4-0.8s-0.1-0.6-0.4-0.8c-0.2-0.2-0.6-0.3-1.1-0.3h-1.4c-0.1,0-0.1,0-0.2,0.1
				s-0.1,0.1-0.1,0.2c0,0.1,0,0.1,0.1,0.2c0,0,0.1,0,0.3,0h0.2v2.6h-0.4c-0.1,0-0.1,0-0.2,0c0,0-0.1,0.1-0.1,0.2
				c0,0.1,0,0.1,0.1,0.2c0,0,0.1,0.1,0.2,0.1h1.4c0.1,0,0.2,0,0.2,0c0,0,0.1-0.1,0.1-0.2c0-0.1,0-0.1-0.1-0.2c0,0-0.1,0-0.2,0H262.5
				z M263.1,11.4c0.3,0,0.5,0.1,0.7,0.2c0.2,0.1,0.2,0.3,0.2,0.5c0,0.2-0.1,0.4-0.2,0.5c-0.2,0.1-0.4,0.2-0.7,0.2h-0.5v-1.4H263.1z"
				/>
			<path clip-path="url(#SVGID_2_)" fill="none" stroke="#FFFFFF" stroke-width="0.4" stroke-miterlimit="10" d="M266,11.2
				c0-0.1-0.1-0.1-0.1-0.2c0,0-0.1,0-0.2,0h-0.5c-0.1,0-0.1,0-0.1,0.1c0,0-0.1,0.1-0.1,0.1c0,0.1,0,0.1,0.1,0.2c0,0,0.1,0,0.2,0h0
				l-0.1,2.7h-0.1c-0.1,0-0.2,0-0.3,0c0,0-0.1,0.1-0.1,0.2c0,0.1,0,0.1,0.1,0.2c0,0,0.1,0.1,0.2,0.1h0.8c0.1,0,0.2,0,0.2,0
				c0,0,0.1-0.1,0.1-0.2c0-0.1,0-0.1-0.1-0.2c0,0-0.1,0-0.2,0h-0.2l0.1-2.5l0.6,1.7c0,0.1,0.1,0.1,0.1,0.2c0,0,0.1,0,0.2,0
				c0.1,0,0.2,0,0.2,0c0,0,0.1-0.1,0.1-0.2l0.6-1.7l0.1,2.5h-0.1c-0.1,0-0.2,0-0.3,0c0,0-0.1,0.1-0.1,0.2c0,0.1,0,0.1,0.1,0.2
				c0,0,0.1,0,0.2,0h0.8c0.1,0,0.1,0,0.2-0.1c0,0,0.1-0.1,0.1-0.2c0-0.1,0-0.1-0.1-0.2c0,0-0.1,0-0.3,0H268l-0.1-2.7h0
				c0.1,0,0.2,0,0.2,0c0,0,0.1-0.1,0.1-0.2c0-0.1,0-0.1,0-0.1c0,0-0.1-0.1-0.1-0.1h-0.5c-0.1,0-0.2,0-0.2,0c0,0-0.1,0.1-0.1,0.2
				l-0.6,1.8L266,11.2z"/>
			<g clip-path="url(#SVGID_2_)">
				<text transform="matrix(1 0 0 1 74 14.5)" font-family="'Courier'" font-size="6">Steam Catalog Sketch copy.pdf   6   10/31/14   7:03 PM</text>
			</g>
			<path clip-path="url(#SVGID_2_)" fill="#FFFFFF" d="M25.5,16.5c0,5-4,9-9,9s-9-4-9-9c0-5,4-9,9-9S25.5,11.5,25.5,16.5"/>
			
				<circle clip-path="url(#SVGID_2_)" fill="none" stroke="#000000" stroke-width="0.3" stroke-miterlimit="10" cx="16.5" cy="16.5" r="9"/>
			<g clip-path="url(#SVGID_2_)">
				<defs>
					<polygon id="SVGID_149_" points="17.5,16.5 34.5,15.7 34.5,17.3 					"/>
				</defs>
				<clipPath id="SVGID_4_">
					<use xlink:href="#SVGID_149_"  overflow="visible"/>
				</clipPath>
				<path clip-path="url(#SVGID_4_)" d="M25.5,16.5c0,5-4,9-9,9s-9-4-9-9c0-5,4-9,9-9S25.5,11.5,25.5,16.5"/>
			</g>
			<g clip-path="url(#SVGID_2_)">
				<defs>
					<polygon id="SVGID_151_" points="17.5,16.7 34.3,18.8 34.1,20.4 					"/>
				</defs>
				<clipPath id="SVGID_6_">
					<use xlink:href="#SVGID_151_"  overflow="visible"/>
				</clipPath>
				<path clip-path="url(#SVGID_6_)" d="M25.4,18.1c-0.9,4.9-5.5,8.2-10.4,7.3c-4.9-0.9-8.2-5.5-7.3-10.4c0.9-4.9,5.5-8.2,10.4-7.3
					S26.2,13.2,25.4,18.1"/>
			</g>
			<g clip-path="url(#SVGID_2_)">
				<defs>
					<polygon id="SVGID_153_" points="17.4,16.8 33.7,21.9 33.1,23.4 					"/>
				</defs>
				<clipPath id="SVGID_8_">
					<use xlink:href="#SVGID_153_"  overflow="visible"/>
				</clipPath>
				<path clip-path="url(#SVGID_8_)" d="M25,19.6c-1.7,4.7-6.9,7.1-11.5,5.4C8.8,23.3,6.3,18.1,8,13.4C9.7,8.8,14.9,6.3,19.6,8
					S26.7,14.9,25,19.6"/>
			</g>
			<g clip-path="url(#SVGID_2_)">
				<defs>
					<polygon id="SVGID_155_" points="17.4,17 32.5,24.8 31.7,26.2 					"/>
				</defs>
				<clipPath id="SVGID_10_">
					<use xlink:href="#SVGID_155_"  overflow="visible"/>
				</clipPath>
				<path clip-path="url(#SVGID_10_)" d="M24.3,21c-2.5,4.3-8,5.8-12.3,3.3c-4.3-2.5-5.8-8-3.3-12.3c2.5-4.3,8-5.8,12.3-3.3
					C25.3,11.2,26.8,16.7,24.3,21"/>
			</g>
			<g clip-path="url(#SVGID_2_)">
				<defs>
					<polygon id="SVGID_157_" points="17.3,17.1 30.8,27.5 29.8,28.7 					"/>
				</defs>
				<clipPath id="SVGID_12_">
					<use xlink:href="#SVGID_157_"  overflow="visible"/>
				</clipPath>
				<path clip-path="url(#SVGID_12_)" d="M23.4,22.3c-3.2,3.8-8.9,4.3-12.7,1.1c-3.8-3.2-4.3-8.9-1.1-12.7c3.2-3.8,8.9-4.3,12.7-1.1
					C26.1,12.8,26.6,18.5,23.4,22.3"/>
			</g>
			<g clip-path="url(#SVGID_2_)">
				<defs>
					<polygon id="SVGID_159_" points="17.1,17.3 28.7,29.8 27.5,30.8 					"/>
				</defs>
				<clipPath id="SVGID_14_">
					<use xlink:href="#SVGID_159_"  overflow="visible"/>
				</clipPath>
				<path clip-path="url(#SVGID_14_)" d="M22.3,23.4c-3.8,3.2-9.5,2.7-12.7-1.1c-3.2-3.8-2.7-9.5,1.1-12.7c3.8-3.2,9.5-2.7,12.7,1.1
					C26.6,14.5,26.1,20.2,22.3,23.4"/>
			</g>
			<g clip-path="url(#SVGID_2_)">
				<defs>
					<polygon id="SVGID_161_" points="17,17.4 26.2,31.7 24.8,32.5 					"/>
				</defs>
				<clipPath id="SVGID_16_">
					<use xlink:href="#SVGID_161_"  overflow="visible"/>
				</clipPath>
				<path clip-path="url(#SVGID_16_)" d="M21,24.3c-4.3,2.5-9.8,1-12.3-3.3c-2.5-4.3-1-9.8,3.3-12.3c4.3-2.5,9.8-1,12.3,3.3
					C26.8,16.3,25.3,21.8,21,24.3"/>
			</g>
			<g clip-path="url(#SVGID_2_)">
				<defs>
					<polygon id="SVGID_163_" points="16.8,17.4 23.4,33.1 21.9,33.7 					"/>
				</defs>
				<clipPath id="SVGID_18_">
					<use xlink:href="#SVGID_163_"  overflow="visible"/>
				</clipPath>
				<path clip-path="url(#SVGID_18_)" d="M19.6,25c-4.7,1.7-9.8-0.7-11.5-5.4S8.8,9.7,13.4,8c4.7-1.7,9.8,0.7,11.5,5.4
					C26.7,18.1,24.2,23.3,19.6,25"/>
			</g>
			<g clip-path="url(#SVGID_2_)">
				<defs>
					<polygon id="SVGID_165_" points="16.7,17.5 20.4,34.1 18.8,34.3 					"/>
				</defs>
				<clipPath id="SVGID_20_">
					<use xlink:href="#SVGID_165_"  overflow="visible"/>
				</clipPath>
				<path clip-path="url(#SVGID_20_)" d="M18.1,25.4c-4.9,0.9-9.6-2.4-10.4-7.3C6.8,13.2,10,8.5,14.9,7.6c4.9-0.9,9.6,2.4,10.4,7.3
					C26.2,19.8,23,24.5,18.1,25.4"/>
			</g>
			<g clip-path="url(#SVGID_2_)">
				<defs>
					<polygon id="SVGID_167_" points="16.5,17.5 17.3,34.5 15.7,34.5 					"/>
				</defs>
				<clipPath id="SVGID_22_">
					<use xlink:href="#SVGID_167_"  overflow="visible"/>
				</clipPath>
				<path clip-path="url(#SVGID_22_)" d="M16.5,25.5c-5,0-9-4-9-9c0-5,4-9,9-9s9,4,9,9C25.5,21.5,21.5,25.5,16.5,25.5"/>
			</g>
			<g clip-path="url(#SVGID_2_)">
				<defs>
					<polygon id="SVGID_169_" points="16.3,17.5 14.2,34.3 12.6,34.1 					"/>
				</defs>
				<clipPath id="SVGID_24_">
					<use xlink:href="#SVGID_169_"  overflow="visible"/>
				</clipPath>
				<path clip-path="url(#SVGID_24_)" d="M14.9,25.4c-4.9-0.9-8.2-5.5-7.3-10.4c0.9-4.9,5.5-8.2,10.4-7.3c4.9,0.9,8.2,5.5,7.3,10.4
					C24.5,23,19.8,26.2,14.9,25.4"/>
			</g>
			<g clip-path="url(#SVGID_2_)">
				<defs>
					<polygon id="SVGID_171_" points="16.2,17.4 11.1,33.7 9.6,33.1 					"/>
				</defs>
				<clipPath id="SVGID_26_">
					<use xlink:href="#SVGID_171_"  overflow="visible"/>
				</clipPath>
				<path clip-path="url(#SVGID_26_)" d="M13.4,25C8.8,23.3,6.3,18.1,8,13.4C9.7,8.8,14.9,6.3,19.6,8c4.7,1.7,7.1,6.9,5.4,11.5
					C23.3,24.2,18.1,26.7,13.4,25"/>
			</g>
			<g clip-path="url(#SVGID_2_)">
				<defs>
					<polygon id="SVGID_173_" points="16,17.4 8.2,32.5 6.8,31.7 					"/>
				</defs>
				<clipPath id="SVGID_28_">
					<use xlink:href="#SVGID_173_"  overflow="visible"/>
				</clipPath>
				<path clip-path="url(#SVGID_28_)" d="M12,24.3c-4.3-2.5-5.8-8-3.3-12.3c2.5-4.3,8-5.8,12.3-3.3c4.3,2.5,5.8,8,3.3,12.3
					C21.8,25.3,16.3,26.8,12,24.3"/>
			</g>
			<g clip-path="url(#SVGID_2_)">
				<defs>
					<polygon id="SVGID_175_" points="15.9,17.3 5.5,30.8 4.3,29.8 					"/>
				</defs>
				<clipPath id="SVGID_30_">
					<use xlink:href="#SVGID_175_"  overflow="visible"/>
				</clipPath>
				<path clip-path="url(#SVGID_30_)" d="M10.7,23.4c-3.8-3.2-4.3-8.9-1.1-12.7c3.2-3.8,8.9-4.3,12.7-1.1c3.8,3.2,4.3,8.9,1.1,12.7
					C20.2,26.1,14.5,26.6,10.7,23.4"/>
			</g>
			<g clip-path="url(#SVGID_2_)">
				<defs>
					<polygon id="SVGID_177_" points="15.7,17.1 3.2,28.7 2.2,27.5 					"/>
				</defs>
				<clipPath id="SVGID_32_">
					<use xlink:href="#SVGID_177_"  overflow="visible"/>
				</clipPath>
				<path clip-path="url(#SVGID_32_)" d="M9.6,22.3c-3.2-3.8-2.7-9.5,1.1-12.7c3.8-3.2,9.5-2.7,12.7,1.1c3.2,3.8,2.7,9.5-1.1,12.7
					C18.5,26.6,12.8,26.1,9.6,22.3"/>
			</g>
			<g clip-path="url(#SVGID_2_)">
				<defs>
					<polygon id="SVGID_179_" points="15.6,17 1.3,26.2 0.5,24.8 					"/>
				</defs>
				<clipPath id="SVGID_34_">
					<use xlink:href="#SVGID_179_"  overflow="visible"/>
				</clipPath>
				<path clip-path="url(#SVGID_34_)" d="M8.7,21c-2.5-4.3-1-9.8,3.3-12.3c4.3-2.5,9.8-1,12.3,3.3c2.5,4.3,1,9.8-3.3,12.3
					C16.7,26.8,11.2,25.3,8.7,21"/>
			</g>
			<g clip-path="url(#SVGID_2_)">
				<defs>
					<polygon id="SVGID_181_" points="15.6,16.8 -0.1,23.4 -0.7,21.9 					"/>
				</defs>
				<clipPath id="SVGID_36_">
					<use xlink:href="#SVGID_181_"  overflow="visible"/>
				</clipPath>
				<path clip-path="url(#SVGID_36_)" d="M8,19.6C6.3,14.9,8.8,9.7,13.4,8s9.8,0.7,11.5,5.4c1.7,4.7-0.7,9.8-5.4,11.5
					C14.9,26.7,9.7,24.2,8,19.6"/>
			</g>
			<g clip-path="url(#SVGID_2_)">
				<defs>
					<polygon id="SVGID_183_" points="15.5,16.7 -1.1,20.4 -1.3,18.8 					"/>
				</defs>
				<clipPath id="SVGID_38_">
					<use xlink:href="#SVGID_183_"  overflow="visible"/>
				</clipPath>
				<path clip-path="url(#SVGID_38_)" d="M7.6,18.1C6.8,13.2,10,8.5,14.9,7.6s9.6,2.4,10.4,7.3c0.9,4.9-2.4,9.6-7.3,10.4
					C13.2,26.2,8.5,23,7.6,18.1"/>
			</g>
			<g clip-path="url(#SVGID_2_)">
				<defs>
					<polygon id="SVGID_185_" points="15.5,16.5 -1.5,17.3 -1.5,15.7 					"/>
				</defs>
				<clipPath id="SVGID_40_">
					<use xlink:href="#SVGID_185_"  overflow="visible"/>
				</clipPath>
				<path clip-path="url(#SVGID_40_)" d="M7.5,16.5c0-5,4-9,9-9s9,4,9,9c0,5-4,9-9,9S7.5,21.5,7.5,16.5"/>
			</g>
			<g clip-path="url(#SVGID_2_)">
				<defs>
					<polygon id="SVGID_187_" points="15.5,16.3 -1.3,14.2 -1.1,12.6 					"/>
				</defs>
				<clipPath id="SVGID_42_">
					<use xlink:href="#SVGID_187_"  overflow="visible"/>
				</clipPath>
				<path clip-path="url(#SVGID_42_)" d="M7.6,14.9c0.9-4.9,5.5-8.2,10.4-7.3c4.9,0.9,8.2,5.5,7.3,10.4c-0.9,4.9-5.5,8.2-10.4,7.3
					S6.8,19.8,7.6,14.9"/>
			</g>
			<g clip-path="url(#SVGID_2_)">
				<defs>
					<polygon id="SVGID_189_" points="15.6,16.2 -0.7,11.1 -0.1,9.6 					"/>
				</defs>
				<clipPath id="SVGID_44_">
					<use xlink:href="#SVGID_189_"  overflow="visible"/>
				</clipPath>
				<path clip-path="url(#SVGID_44_)" d="M8,13.4C9.7,8.8,14.9,6.3,19.6,8c4.7,1.7,7.1,6.9,5.4,11.5c-1.7,4.7-6.9,7.1-11.5,5.4
					S6.3,18.1,8,13.4"/>
			</g>
			<g clip-path="url(#SVGID_2_)">
				<defs>
					<polygon id="SVGID_191_" points="15.6,16 0.5,8.2 1.3,6.8 					"/>
				</defs>
				<clipPath id="SVGID_46_">
					<use xlink:href="#SVGID_191_"  overflow="visible"/>
				</clipPath>
				<path clip-path="url(#SVGID_46_)" d="M8.7,12c2.5-4.3,8-5.8,12.3-3.3c4.3,2.5,5.8,8,3.3,12.3c-2.5,4.3-8,5.8-12.3,3.3
					C7.7,21.8,6.2,16.3,8.7,12"/>
			</g>
			<g clip-path="url(#SVGID_2_)">
				<defs>
					<polygon id="SVGID_193_" points="15.7,15.9 2.2,5.5 3.2,4.3 					"/>
				</defs>
				<clipPath id="SVGID_48_">
					<use xlink:href="#SVGID_193_"  overflow="visible"/>
				</clipPath>
				<path clip-path="url(#SVGID_48_)" d="M9.6,10.7c3.2-3.8,8.9-4.3,12.7-1.1c3.8,3.2,4.3,8.9,1.1,12.7c-3.2,3.8-8.9,4.3-12.7,1.1
					C6.9,20.2,6.4,14.5,9.6,10.7"/>
			</g>
			<g clip-path="url(#SVGID_2_)">
				<defs>
					<polygon id="SVGID_195_" points="15.9,15.7 4.3,3.2 5.5,2.2 					"/>
				</defs>
				<clipPath id="SVGID_50_">
					<use xlink:href="#SVGID_195_"  overflow="visible"/>
				</clipPath>
				<path clip-path="url(#SVGID_50_)" d="M10.7,9.6c3.8-3.2,9.5-2.7,12.7,1.1c3.2,3.8,2.7,9.5-1.1,12.7c-3.8,3.2-9.5,2.7-12.7-1.1
					C6.4,18.5,6.9,12.8,10.7,9.6"/>
			</g>
			<g clip-path="url(#SVGID_2_)">
				<defs>
					<polygon id="SVGID_197_" points="16,15.6 6.8,1.3 8.2,0.5 					"/>
				</defs>
				<clipPath id="SVGID_52_">
					<use xlink:href="#SVGID_197_"  overflow="visible"/>
				</clipPath>
				<path clip-path="url(#SVGID_52_)" d="M12,8.7c4.3-2.5,9.8-1,12.3,3.3c2.5,4.3,1,9.8-3.3,12.3c-4.3,2.5-9.8,1-12.3-3.3
					C6.2,16.7,7.7,11.2,12,8.7"/>
			</g>
			<g clip-path="url(#SVGID_2_)">
				<defs>
					<polygon id="SVGID_199_" points="16.2,15.6 9.6,-0.1 11.1,-0.7 					"/>
				</defs>
				<clipPath id="SVGID_54_">
					<use xlink:href="#SVGID_199_"  overflow="visible"/>
				</clipPath>
				<path clip-path="url(#SVGID_54_)" d="M13.4,8c4.7-1.7,9.8,0.7,11.5,5.4c1.7,4.7-0.7,9.8-5.4,11.5c-4.7,1.7-9.8-0.7-11.5-5.4
					C6.3,14.9,8.8,9.7,13.4,8"/>
			</g>
			<g clip-path="url(#SVGID_2_)">
				<defs>
					<polygon id="SVGID_201_" points="16.3,15.5 12.6,-1.1 14.2,-1.3 					"/>
				</defs>
				<clipPath id="SVGID_56_">
					<use xlink:href="#SVGID_201_"  overflow="visible"/>
				</clipPath>
				<path clip-path="url(#SVGID_56_)" d="M14.9,7.6c4.9-0.9,9.6,2.4,10.4,7.3c0.9,4.9-2.4,9.6-7.3,10.4c-4.9,0.9-9.6-2.4-10.4-7.3
					C6.8,13.2,10,8.5,14.9,7.6"/>
			</g>
			<g clip-path="url(#SVGID_2_)">
				<defs>
					<polygon id="SVGID_203_" points="16.5,15.5 15.7,-1.5 17.3,-1.5 					"/>
				</defs>
				<clipPath id="SVGID_58_">
					<use xlink:href="#SVGID_203_"  overflow="visible"/>
				</clipPath>
				<path clip-path="url(#SVGID_58_)" d="M16.5,7.5c5,0,9,4,9,9c0,5-4,9-9,9s-9-4-9-9C7.5,11.5,11.5,7.5,16.5,7.5"/>
			</g>
			<g clip-path="url(#SVGID_2_)">
				<defs>
					<polygon id="SVGID_205_" points="16.7,15.5 18.8,-1.3 20.4,-1.1 					"/>
				</defs>
				<clipPath id="SVGID_60_">
					<use xlink:href="#SVGID_205_"  overflow="visible"/>
				</clipPath>
				<path clip-path="url(#SVGID_60_)" d="M18.1,7.6c4.9,0.9,8.2,5.5,7.3,10.4c-0.9,4.9-5.5,8.2-10.4,7.3c-4.9-0.9-8.2-5.5-7.3-10.4
					C8.5,10,13.2,6.8,18.1,7.6"/>
			</g>
			<g clip-path="url(#SVGID_2_)">
				<defs>
					<polygon id="SVGID_207_" points="16.8,15.6 21.9,-0.7 23.4,-0.1 					"/>
				</defs>
				<clipPath id="SVGID_62_">
					<use xlink:href="#SVGID_207_"  overflow="visible"/>
				</clipPath>
				<path clip-path="url(#SVGID_62_)" d="M19.6,8c4.7,1.7,7.1,6.9,5.4,11.5c-1.7,4.7-6.9,7.1-11.5,5.4C8.8,23.3,6.3,18.1,8,13.4
					S14.9,6.3,19.6,8"/>
			</g>
			<g clip-path="url(#SVGID_2_)">
				<defs>
					<polygon id="SVGID_209_" points="17,15.6 24.8,0.5 26.2,1.3 					"/>
				</defs>
				<clipPath id="SVGID_64_">
					<use xlink:href="#SVGID_209_"  overflow="visible"/>
				</clipPath>
				<path clip-path="url(#SVGID_64_)" d="M21,8.7c4.3,2.5,5.8,8,3.3,12.3c-2.5,4.3-8,5.8-12.3,3.3c-4.3-2.5-5.8-8-3.3-12.3
					C11.2,7.7,16.7,6.2,21,8.7"/>
			</g>
			<g clip-path="url(#SVGID_2_)">
				<defs>
					<polygon id="SVGID_211_" points="17.1,15.7 27.5,2.2 28.7,3.2 					"/>
				</defs>
				<clipPath id="SVGID_66_">
					<use xlink:href="#SVGID_211_"  overflow="visible"/>
				</clipPath>
				<path clip-path="url(#SVGID_66_)" d="M22.3,9.6c3.8,3.2,4.3,8.9,1.1,12.7c-3.2,3.8-8.9,4.3-12.7,1.1c-3.8-3.2-4.3-8.9-1.1-12.7
					C12.8,6.9,18.5,6.4,22.3,9.6"/>
			</g>
			<g clip-path="url(#SVGID_2_)">
				<defs>
					<polygon id="SVGID_213_" points="17.3,15.9 29.8,4.3 30.8,5.5 					"/>
				</defs>
				<clipPath id="SVGID_68_">
					<use xlink:href="#SVGID_213_"  overflow="visible"/>
				</clipPath>
				<path clip-path="url(#SVGID_68_)" d="M23.4,10.7c3.2,3.8,2.7,9.5-1.1,12.7c-3.8,3.2-9.5,2.7-12.7-1.1c-3.2-3.8-2.7-9.5,1.1-12.7
					C14.5,6.4,20.2,6.9,23.4,10.7"/>
			</g>
			<g clip-path="url(#SVGID_2_)">
				<defs>
					<polygon id="SVGID_215_" points="17.4,16 31.7,6.8 32.5,8.2 					"/>
				</defs>
				<clipPath id="SVGID_70_">
					<use xlink:href="#SVGID_215_"  overflow="visible"/>
				</clipPath>
				<path clip-path="url(#SVGID_70_)" d="M24.3,12c2.5,4.3,1,9.8-3.3,12.3c-4.3,2.5-9.8,1-12.3-3.3c-2.5-4.3-1-9.8,3.3-12.3
					C16.3,6.2,21.8,7.7,24.3,12"/>
			</g>
			<g clip-path="url(#SVGID_2_)">
				<defs>
					<polygon id="SVGID_217_" points="17.4,16.2 33.1,9.6 33.7,11.1 					"/>
				</defs>
				<clipPath id="SVGID_72_">
					<use xlink:href="#SVGID_217_"  overflow="visible"/>
				</clipPath>
				<path clip-path="url(#SVGID_72_)" d="M25,13.4c1.7,4.7-0.7,9.8-5.4,11.5S9.7,24.2,8,19.6C6.3,14.9,8.8,9.7,13.4,8
					C18.1,6.3,23.3,8.8,25,13.4"/>
			</g>
			<g clip-path="url(#SVGID_2_)">
				<defs>
					<polygon id="SVGID_219_" points="17.5,16.3 34.1,12.6 34.3,14.2 					"/>
				</defs>
				<clipPath id="SVGID_74_">
					<use xlink:href="#SVGID_219_"  overflow="visible"/>
				</clipPath>
				<path clip-path="url(#SVGID_74_)" d="M25.4,14.9c0.9,4.9-2.4,9.6-7.3,10.4S8.5,23,7.6,18.1C6.8,13.2,10,8.5,14.9,7.6
					C19.8,6.8,24.5,10,25.4,14.9"/>
			</g>
		</g>
	</g>
</g>
<g id="Layer_1">
</g>
<g id="Layer_3" display="none">
</g>
</svg>
