<?xml version="1.0" encoding="utf-8"?>
<!-- Generator: Adobe Illustrator 17.1.0, SVG Export Plug-In . SVG Version: 6.00 Build 0)  -->
<!DOCTYPE svg PUBLIC "-//W3C//DTD SVG 1.1//EN" "http://www.w3.org/Graphics/SVG/1.1/DTD/svg11.dtd">
<svg version="1.1" xmlns="http://www.w3.org/2000/svg" xmlns:xlink="http://www.w3.org/1999/xlink" x="0px" y="0px"
	 viewBox="0 0 63 63.3" enable-background="new 0 0 63 63.3" xml:space="preserve">
<g id="Layer_4">
</g>
<g id="Layer_2">
	<g>
		<g>
			<defs>
				<rect id="SVGID_147_" x="-1217" y="-745.7" width="1280" height="809"/>
			</defs>
			<clipPath id="SVGID_2_">
				<use xlink:href="#SVGID_147_"  overflow="visible"/>
			</clipPath>
			<path clip-path="url(#SVGID_2_)" fill="none" stroke="#FFFFFF" stroke-width="1.25" stroke-miterlimit="10" d="M27,33.3v27
				 M27-715.7v-27 M-1181,33.3v27 M-1181-715.7v-27 M33,27.3h27 M-1187,27.3h-27 M33-709.7h27 M-1187-709.7h-27"/>
			<path clip-path="url(#SVGID_2_)" fill="none" stroke="#000000" stroke-width="0.25" stroke-miterlimit="10" d="M27,33.3v27
				 M27-715.7v-27 M-1181,33.3v27 M-1181-715.7v-27 M33,27.3h27 M-1187,27.3h-27 M33-709.7h27 M-1187-709.7h-27"/>
			
				<circle clip-path="url(#SVGID_2_)" fill="none" stroke="#FFFFFF" stroke-width="1.25" stroke-miterlimit="10" cx="9" cy="46.8" r="6"/>
			
				<line clip-path="url(#SVGID_2_)" fill="none" stroke="#FFFFFF" stroke-width="1.25" stroke-miterlimit="10" x1="0" y1="46.8" x2="18" y2="46.8"/>
			
				<line clip-path="url(#SVGID_2_)" fill="none" stroke="#FFFFFF" stroke-width="1.25" stroke-miterlimit="10" x1="9" y1="37.8" x2="9" y2="55.8"/>
			
				<circle clip-path="url(#SVGID_2_)" fill="none" stroke="#FFFFFF" stroke-width="1.25" stroke-miterlimit="10" cx="9" cy="46.8" r="3"/>
			
				<circle clip-path="url(#SVGID_2_)" fill="none" stroke="#000000" stroke-width="0.25" stroke-miterlimit="10" cx="9" cy="46.8" r="6"/>
			
				<line clip-path="url(#SVGID_2_)" fill="none" stroke="#000000" stroke-width="0.25" stroke-miterlimit="10" x1="0" y1="46.8" x2="18" y2="46.8"/>
			
				<line clip-path="url(#SVGID_2_)" fill="none" stroke="#000000" stroke-width="0.25" stroke-miterlimit="10" x1="9" y1="37.8" x2="9" y2="55.8"/>
			<path clip-path="url(#SVGID_2_)" d="M12,46.8c0,1.7-1.3,3-3,3c-1.7,0-3-1.3-3-3c0-1.7,1.3-3,3-3C10.7,43.8,12,45.1,12,46.8"/>
			
				<line clip-path="url(#SVGID_2_)" fill="none" stroke="#FFFFFF" stroke-width="0.25" stroke-miterlimit="10" x1="6" y1="46.8" x2="12" y2="46.8"/>
			
				<line clip-path="url(#SVGID_2_)" fill="none" stroke="#FFFFFF" stroke-width="0.25" stroke-miterlimit="10" x1="9" y1="43.8" x2="9" y2="49.8"/>
			
				<circle clip-path="url(#SVGID_2_)" fill="none" stroke="#FFFFFF" stroke-width="1.25" stroke-miterlimit="10" cx="46.5" cy="9.3" r="6"/>
			
				<line clip-path="url(#SVGID_2_)" fill="none" stroke="#FFFFFF" stroke-width="1.25" stroke-miterlimit="10" x1="37.5" y1="9.3" x2="55.5" y2="9.3"/>
			
				<line clip-path="url(#SVGID_2_)" fill="none" stroke="#FFFFFF" stroke-width="1.25" stroke-miterlimit="10" x1="46.5" y1="0.3" x2="46.5" y2="18.3"/>
			
				<circle clip-path="url(#SVGID_2_)" fill="none" stroke="#FFFFFF" stroke-width="1.25" stroke-miterlimit="10" cx="46.5" cy="9.3" r="3"/>
			
				<circle clip-path="url(#SVGID_2_)" fill="none" stroke="#000000" stroke-width="0.25" stroke-miterlimit="10" cx="46.5" cy="9.3" r="6"/>
			
				<line clip-path="url(#SVGID_2_)" fill="none" stroke="#000000" stroke-width="0.25" stroke-miterlimit="10" x1="37.5" y1="9.3" x2="55.5" y2="9.3"/>
			
				<line clip-path="url(#SVGID_2_)" fill="none" stroke="#000000" stroke-width="0.25" stroke-miterlimit="10" x1="46.5" y1="0.3" x2="46.5" y2="18.3"/>
			<path clip-path="url(#SVGID_2_)" d="M49.5,9.3c0,1.7-1.3,3-3,3c-1.7,0-3-1.3-3-3c0-1.7,1.3-3,3-3C48.2,6.3,49.5,7.6,49.5,9.3"/>
			
				<line clip-path="url(#SVGID_2_)" fill="none" stroke="#FFFFFF" stroke-width="0.25" stroke-miterlimit="10" x1="43.5" y1="9.3" x2="49.5" y2="9.3"/>
			
				<line clip-path="url(#SVGID_2_)" fill="none" stroke="#FFFFFF" stroke-width="0.25" stroke-miterlimit="10" x1="46.5" y1="6.3" x2="46.5" y2="12.3"/>
			<path clip-path="url(#SVGID_2_)" fill="#FFFFFF" d="M55.5,46.8c0,5-4,9-9,9c-5,0-9-4-9-9s4-9,9-9C51.5,37.8,55.5,41.8,55.5,46.8"
				/>
			
				<circle clip-path="url(#SVGID_2_)" fill="none" stroke="#000000" stroke-width="0.3" stroke-miterlimit="10" cx="46.5" cy="46.8" r="9"/>
			<g clip-path="url(#SVGID_2_)">
				<defs>
					<polygon id="SVGID_221_" points="47.5,46.8 64.5,46 64.5,47.5 					"/>
				</defs>
				<clipPath id="SVGID_4_">
					<use xlink:href="#SVGID_221_"  overflow="visible"/>
				</clipPath>
				<path clip-path="url(#SVGID_4_)" d="M55.5,46.8c0,5-4,9-9,9c-5,0-9-4-9-9s4-9,9-9C51.5,37.8,55.5,41.8,55.5,46.8"/>
			</g>
			<g clip-path="url(#SVGID_2_)">
				<defs>
					<polygon id="SVGID_223_" points="47.5,46.9 64.3,49.1 64.1,50.6 					"/>
				</defs>
				<clipPath id="SVGID_6_">
					<use xlink:href="#SVGID_223_"  overflow="visible"/>
				</clipPath>
				<path clip-path="url(#SVGID_6_)" d="M55.4,48.3c-0.9,4.9-5.5,8.2-10.4,7.3c-4.9-0.9-8.2-5.5-7.3-10.4c0.9-4.9,5.5-8.2,10.4-7.3
					C53,38.7,56.2,43.4,55.4,48.3"/>
			</g>
			<g clip-path="url(#SVGID_2_)">
				<defs>
					<polygon id="SVGID_225_" points="47.4,47.1 63.7,52.2 63.1,53.6 					"/>
				</defs>
				<clipPath id="SVGID_8_">
					<use xlink:href="#SVGID_225_"  overflow="visible"/>
				</clipPath>
				<path clip-path="url(#SVGID_8_)" d="M55,49.8c-1.7,4.7-6.9,7.1-11.5,5.4c-4.7-1.7-7.1-6.9-5.4-11.5c1.7-4.7,6.9-7.1,11.5-5.4
					S56.7,45.2,55,49.8"/>
			</g>
			<g clip-path="url(#SVGID_2_)">
				<defs>
					<polygon id="SVGID_227_" points="47.4,47.3 62.5,55.1 61.7,56.4 					"/>
				</defs>
				<clipPath id="SVGID_10_">
					<use xlink:href="#SVGID_227_"  overflow="visible"/>
				</clipPath>
				<path clip-path="url(#SVGID_10_)" d="M54.3,51.3c-2.5,4.3-8,5.8-12.3,3.3c-4.3-2.5-5.8-8-3.3-12.3c2.5-4.3,8-5.8,12.3-3.3
					C55.3,41.4,56.8,46.9,54.3,51.3"/>
			</g>
			<g clip-path="url(#SVGID_2_)">
				<defs>
					<polygon id="SVGID_229_" points="47.3,47.4 60.8,57.7 59.8,58.9 					"/>
				</defs>
				<clipPath id="SVGID_12_">
					<use xlink:href="#SVGID_229_"  overflow="visible"/>
				</clipPath>
				<path clip-path="url(#SVGID_12_)" d="M53.4,52.5c-3.2,3.8-8.9,4.3-12.7,1.1c-3.8-3.2-4.3-8.9-1.1-12.7c3.2-3.8,8.9-4.3,12.7-1.1
					C56.1,43.1,56.6,48.7,53.4,52.5"/>
			</g>
			<g clip-path="url(#SVGID_2_)">
				<defs>
					<polygon id="SVGID_231_" points="47.1,47.5 58.7,60 57.5,61 					"/>
				</defs>
				<clipPath id="SVGID_14_">
					<use xlink:href="#SVGID_231_"  overflow="visible"/>
				</clipPath>
				<path clip-path="url(#SVGID_14_)" d="M52.3,53.6c-3.8,3.2-9.5,2.7-12.7-1.1c-3.2-3.8-2.7-9.5,1.1-12.7s9.5-2.7,12.7,1.1
					C56.6,44.8,56.1,50.4,52.3,53.6"/>
			</g>
			<g clip-path="url(#SVGID_2_)">
				<defs>
					<polygon id="SVGID_233_" points="47,47.6 56.2,61.9 54.8,62.7 					"/>
				</defs>
				<clipPath id="SVGID_16_">
					<use xlink:href="#SVGID_233_"  overflow="visible"/>
				</clipPath>
				<path clip-path="url(#SVGID_16_)" d="M51,54.5c-4.3,2.5-9.8,1-12.3-3.3c-2.5-4.3-1-9.8,3.3-12.3c4.3-2.5,9.8-1,12.3,3.3
					C56.8,46.6,55.3,52.1,51,54.5"/>
			</g>
			<g clip-path="url(#SVGID_2_)">
				<defs>
					<polygon id="SVGID_235_" points="46.8,47.7 53.4,63.4 51.9,63.9 					"/>
				</defs>
				<clipPath id="SVGID_18_">
					<use xlink:href="#SVGID_235_"  overflow="visible"/>
				</clipPath>
				<path clip-path="url(#SVGID_18_)" d="M49.6,55.2c-4.7,1.7-9.8-0.7-11.5-5.4c-1.7-4.7,0.7-9.8,5.4-11.5c4.7-1.7,9.8,0.7,11.5,5.4
					C56.7,48.3,54.2,53.5,49.6,55.2"/>
			</g>
			<g clip-path="url(#SVGID_2_)">
				<defs>
					<polygon id="SVGID_237_" points="46.7,47.7 50.4,64.3 48.8,64.6 					"/>
				</defs>
				<clipPath id="SVGID_20_">
					<use xlink:href="#SVGID_237_"  overflow="visible"/>
				</clipPath>
				<path clip-path="url(#SVGID_20_)" d="M48.1,55.6c-4.9,0.9-9.6-2.4-10.4-7.3c-0.9-4.9,2.4-9.6,7.3-10.4c4.9-0.9,9.6,2.4,10.4,7.3
					C56.2,50.1,53,54.8,48.1,55.6"/>
			</g>
			<g clip-path="url(#SVGID_2_)">
				<defs>
					<polygon id="SVGID_239_" points="46.5,47.8 47.3,64.7 45.7,64.7 					"/>
				</defs>
				<clipPath id="SVGID_22_">
					<use xlink:href="#SVGID_239_"  overflow="visible"/>
				</clipPath>
				<path clip-path="url(#SVGID_22_)" d="M46.5,55.8c-5,0-9-4-9-9s4-9,9-9c5,0,9,4,9,9S51.5,55.8,46.5,55.8"/>
			</g>
			<g clip-path="url(#SVGID_2_)">
				<defs>
					<polygon id="SVGID_241_" points="46.3,47.7 44.2,64.6 42.6,64.3 					"/>
				</defs>
				<clipPath id="SVGID_24_">
					<use xlink:href="#SVGID_241_"  overflow="visible"/>
				</clipPath>
				<path clip-path="url(#SVGID_24_)" d="M44.9,55.6c-4.9-0.9-8.2-5.5-7.3-10.4c0.9-4.9,5.5-8.2,10.4-7.3c4.9,0.9,8.2,5.5,7.3,10.4
					C54.5,53.2,49.8,56.5,44.9,55.6"/>
			</g>
			<g clip-path="url(#SVGID_2_)">
				<defs>
					<polygon id="SVGID_243_" points="46.2,47.7 41.1,63.9 39.6,63.4 					"/>
				</defs>
				<clipPath id="SVGID_26_">
					<use xlink:href="#SVGID_243_"  overflow="visible"/>
				</clipPath>
				<path clip-path="url(#SVGID_26_)" d="M43.4,55.2c-4.7-1.7-7.1-6.9-5.4-11.5c1.7-4.7,6.9-7.1,11.5-5.4c4.7,1.7,7.1,6.9,5.4,11.5
					C53.3,54.5,48.1,56.9,43.4,55.2"/>
			</g>
			<g clip-path="url(#SVGID_2_)">
				<defs>
					<polygon id="SVGID_245_" points="46,47.6 38.2,62.7 36.8,61.9 					"/>
				</defs>
				<clipPath id="SVGID_28_">
					<use xlink:href="#SVGID_245_"  overflow="visible"/>
				</clipPath>
				<path clip-path="url(#SVGID_28_)" d="M42,54.5c-4.3-2.5-5.8-8-3.3-12.3c2.5-4.3,8-5.8,12.3-3.3c4.3,2.5,5.8,8,3.3,12.3
					C51.8,55.6,46.3,57,42,54.5"/>
			</g>
			<g clip-path="url(#SVGID_2_)">
				<defs>
					<polygon id="SVGID_247_" points="45.9,47.5 35.5,61 34.3,60 					"/>
				</defs>
				<clipPath id="SVGID_30_">
					<use xlink:href="#SVGID_247_"  overflow="visible"/>
				</clipPath>
				<path clip-path="url(#SVGID_30_)" d="M40.7,53.6c-3.8-3.2-4.3-8.9-1.1-12.7c3.2-3.8,8.9-4.3,12.7-1.1s4.3,8.9,1.1,12.7
					C50.2,56.3,44.5,56.8,40.7,53.6"/>
			</g>
			<g clip-path="url(#SVGID_2_)">
				<defs>
					<polygon id="SVGID_249_" points="45.7,47.4 33.2,58.9 32.2,57.7 					"/>
				</defs>
				<clipPath id="SVGID_32_">
					<use xlink:href="#SVGID_249_"  overflow="visible"/>
				</clipPath>
				<path clip-path="url(#SVGID_32_)" d="M39.6,52.5c-3.2-3.8-2.7-9.5,1.1-12.7c3.8-3.2,9.5-2.7,12.7,1.1c3.2,3.8,2.7,9.5-1.1,12.7
					C48.5,56.8,42.8,56.3,39.6,52.5"/>
			</g>
			<g clip-path="url(#SVGID_2_)">
				<defs>
					<polygon id="SVGID_251_" points="45.6,47.3 31.3,56.4 30.5,55.1 					"/>
				</defs>
				<clipPath id="SVGID_34_">
					<use xlink:href="#SVGID_251_"  overflow="visible"/>
				</clipPath>
				<path clip-path="url(#SVGID_34_)" d="M38.7,51.3c-2.5-4.3-1-9.8,3.3-12.3c4.3-2.5,9.8-1,12.3,3.3c2.5,4.3,1,9.8-3.3,12.3
					C46.7,57,41.2,55.6,38.7,51.3"/>
			</g>
			<g clip-path="url(#SVGID_2_)">
				<defs>
					<polygon id="SVGID_253_" points="45.6,47.1 29.9,53.6 29.3,52.2 					"/>
				</defs>
				<clipPath id="SVGID_36_">
					<use xlink:href="#SVGID_253_"  overflow="visible"/>
				</clipPath>
				<path clip-path="url(#SVGID_36_)" d="M38,49.8c-1.7-4.7,0.7-9.8,5.4-11.5S53.3,39,55,43.7c1.7,4.7-0.7,9.8-5.4,11.5
					C44.9,56.9,39.7,54.5,38,49.8"/>
			</g>
			<g clip-path="url(#SVGID_2_)">
				<defs>
					<polygon id="SVGID_255_" points="45.5,46.9 28.9,50.6 28.7,49.1 					"/>
				</defs>
				<clipPath id="SVGID_38_">
					<use xlink:href="#SVGID_255_"  overflow="visible"/>
				</clipPath>
				<path clip-path="url(#SVGID_38_)" d="M37.6,48.3c-0.9-4.9,2.4-9.6,7.3-10.4c4.9-0.9,9.6,2.4,10.4,7.3c0.9,4.9-2.4,9.6-7.3,10.4
					C43.2,56.5,38.5,53.2,37.6,48.3"/>
			</g>
			<g clip-path="url(#SVGID_2_)">
				<defs>
					<polygon id="SVGID_257_" points="45.5,46.8 28.5,47.5 28.5,46 					"/>
				</defs>
				<clipPath id="SVGID_40_">
					<use xlink:href="#SVGID_257_"  overflow="visible"/>
				</clipPath>
				<path clip-path="url(#SVGID_40_)" d="M37.5,46.8c0-5,4-9,9-9c5,0,9,4,9,9s-4,9-9,9C41.5,55.8,37.5,51.7,37.5,46.8"/>
			</g>
			<g clip-path="url(#SVGID_2_)">
				<defs>
					<polygon id="SVGID_259_" points="45.5,46.6 28.7,44.4 28.9,42.9 					"/>
				</defs>
				<clipPath id="SVGID_42_">
					<use xlink:href="#SVGID_259_"  overflow="visible"/>
				</clipPath>
				<path clip-path="url(#SVGID_42_)" d="M37.6,45.2c0.9-4.9,5.5-8.2,10.4-7.3c4.9,0.9,8.2,5.5,7.3,10.4c-0.9,4.9-5.5,8.2-10.4,7.3
					S36.8,50.1,37.6,45.2"/>
			</g>
			<g clip-path="url(#SVGID_2_)">
				<defs>
					<polygon id="SVGID_261_" points="45.6,46.4 29.3,41.3 29.9,39.9 					"/>
				</defs>
				<clipPath id="SVGID_44_">
					<use xlink:href="#SVGID_261_"  overflow="visible"/>
				</clipPath>
				<path clip-path="url(#SVGID_44_)" d="M38,43.7c1.7-4.7,6.9-7.1,11.5-5.4c4.7,1.7,7.1,6.9,5.4,11.5c-1.7,4.7-6.9,7.1-11.5,5.4
					C38.8,53.5,36.3,48.3,38,43.7"/>
			</g>
			<g clip-path="url(#SVGID_2_)">
				<defs>
					<polygon id="SVGID_263_" points="45.6,46.3 30.5,38.4 31.3,37.1 					"/>
				</defs>
				<clipPath id="SVGID_46_">
					<use xlink:href="#SVGID_263_"  overflow="visible"/>
				</clipPath>
				<path clip-path="url(#SVGID_46_)" d="M38.7,42.3c2.5-4.3,8-5.8,12.3-3.3c4.3,2.5,5.8,8,3.3,12.3c-2.5,4.3-8,5.8-12.3,3.3
					C37.7,52.1,36.2,46.6,38.7,42.3"/>
			</g>
			<g clip-path="url(#SVGID_2_)">
				<defs>
					<polygon id="SVGID_265_" points="45.7,46.1 32.2,35.8 33.2,34.6 					"/>
				</defs>
				<clipPath id="SVGID_48_">
					<use xlink:href="#SVGID_265_"  overflow="visible"/>
				</clipPath>
				<path clip-path="url(#SVGID_48_)" d="M39.6,41c3.2-3.8,8.9-4.3,12.7-1.1c3.8,3.2,4.3,8.9,1.1,12.7c-3.2,3.8-8.9,4.3-12.7,1.1
					C36.9,50.4,36.4,44.8,39.6,41"/>
			</g>
			<g clip-path="url(#SVGID_2_)">
				<defs>
					<polygon id="SVGID_267_" points="45.9,46 34.3,33.5 35.5,32.5 					"/>
				</defs>
				<clipPath id="SVGID_50_">
					<use xlink:href="#SVGID_267_"  overflow="visible"/>
				</clipPath>
				<path clip-path="url(#SVGID_50_)" d="M40.7,39.9c3.8-3.2,9.5-2.7,12.7,1.1c3.2,3.8,2.7,9.5-1.1,12.7s-9.5,2.7-12.7-1.1
					C36.4,48.7,36.9,43.1,40.7,39.9"/>
			</g>
			<g clip-path="url(#SVGID_2_)">
				<defs>
					<polygon id="SVGID_269_" points="46,45.9 36.8,31.6 38.2,30.8 					"/>
				</defs>
				<clipPath id="SVGID_52_">
					<use xlink:href="#SVGID_269_"  overflow="visible"/>
				</clipPath>
				<path clip-path="url(#SVGID_52_)" d="M42,39c4.3-2.5,9.8-1,12.3,3.3c2.5,4.3,1,9.8-3.3,12.3c-4.3,2.5-9.8,1-12.3-3.3
					C36.2,46.9,37.7,41.4,42,39"/>
			</g>
			<g clip-path="url(#SVGID_2_)">
				<defs>
					<polygon id="SVGID_271_" points="46.2,45.8 39.6,30.1 41.1,29.6 					"/>
				</defs>
				<clipPath id="SVGID_54_">
					<use xlink:href="#SVGID_271_"  overflow="visible"/>
				</clipPath>
				<path clip-path="url(#SVGID_54_)" d="M43.4,38.3c4.7-1.7,9.8,0.7,11.5,5.4c1.7,4.7-0.7,9.8-5.4,11.5c-4.7,1.7-9.8-0.7-11.5-5.4
					C36.3,45.2,38.8,40,43.4,38.3"/>
			</g>
			<g clip-path="url(#SVGID_2_)">
				<defs>
					<polygon id="SVGID_273_" points="46.3,45.8 42.6,29.2 44.2,28.9 					"/>
				</defs>
				<clipPath id="SVGID_56_">
					<use xlink:href="#SVGID_273_"  overflow="visible"/>
				</clipPath>
				<path clip-path="url(#SVGID_56_)" d="M44.9,37.9c4.9-0.9,9.6,2.4,10.4,7.3c0.9,4.9-2.4,9.6-7.3,10.4c-4.9,0.9-9.6-2.4-10.4-7.3
					C36.8,43.4,40,38.7,44.9,37.9"/>
			</g>
			<g clip-path="url(#SVGID_2_)">
				<defs>
					<polygon id="SVGID_275_" points="46.5,45.8 45.7,28.8 47.3,28.8 					"/>
				</defs>
				<clipPath id="SVGID_58_">
					<use xlink:href="#SVGID_275_"  overflow="visible"/>
				</clipPath>
				<path clip-path="url(#SVGID_58_)" d="M46.5,37.8c5,0,9,4,9,9s-4,9-9,9c-5,0-9-4-9-9S41.5,37.8,46.5,37.8"/>
			</g>
			<g clip-path="url(#SVGID_2_)">
				<defs>
					<polygon id="SVGID_277_" points="46.7,45.8 48.8,28.9 50.4,29.2 					"/>
				</defs>
				<clipPath id="SVGID_60_">
					<use xlink:href="#SVGID_277_"  overflow="visible"/>
				</clipPath>
				<path clip-path="url(#SVGID_60_)" d="M48.1,37.9c4.9,0.9,8.2,5.5,7.3,10.4c-0.9,4.9-5.5,8.2-10.4,7.3c-4.9-0.9-8.2-5.5-7.3-10.4
					C38.5,40.3,43.2,37,48.1,37.9"/>
			</g>
			<g clip-path="url(#SVGID_2_)">
				<defs>
					<polygon id="SVGID_279_" points="46.8,45.8 51.9,29.6 53.4,30.1 					"/>
				</defs>
				<clipPath id="SVGID_62_">
					<use xlink:href="#SVGID_279_"  overflow="visible"/>
				</clipPath>
				<path clip-path="url(#SVGID_62_)" d="M49.6,38.3c4.7,1.7,7.1,6.9,5.4,11.5c-1.7,4.7-6.9,7.1-11.5,5.4c-4.7-1.7-7.1-6.9-5.4-11.5
					C39.7,39,44.9,36.6,49.6,38.3"/>
			</g>
			<g clip-path="url(#SVGID_2_)">
				<defs>
					<polygon id="SVGID_281_" points="47,45.9 54.8,30.8 56.2,31.6 					"/>
				</defs>
				<clipPath id="SVGID_64_">
					<use xlink:href="#SVGID_281_"  overflow="visible"/>
				</clipPath>
				<path clip-path="url(#SVGID_64_)" d="M51,39c4.3,2.5,5.8,8,3.3,12.3c-2.5,4.3-8,5.8-12.3,3.3c-4.3-2.5-5.8-8-3.3-12.3
					C41.2,37.9,46.7,36.5,51,39"/>
			</g>
			<g clip-path="url(#SVGID_2_)">
				<defs>
					<polygon id="SVGID_283_" points="47.1,46 57.5,32.5 58.7,33.5 					"/>
				</defs>
				<clipPath id="SVGID_66_">
					<use xlink:href="#SVGID_283_"  overflow="visible"/>
				</clipPath>
				<path clip-path="url(#SVGID_66_)" d="M52.3,39.9c3.8,3.2,4.3,8.9,1.1,12.7c-3.2,3.8-8.9,4.3-12.7,1.1s-4.3-8.9-1.1-12.7
					C42.8,37.2,48.5,36.7,52.3,39.9"/>
			</g>
			<g clip-path="url(#SVGID_2_)">
				<defs>
					<polygon id="SVGID_285_" points="47.3,46.1 59.8,34.6 60.8,35.8 					"/>
				</defs>
				<clipPath id="SVGID_68_">
					<use xlink:href="#SVGID_285_"  overflow="visible"/>
				</clipPath>
				<path clip-path="url(#SVGID_68_)" d="M53.4,41c3.2,3.8,2.7,9.5-1.1,12.7c-3.8,3.2-9.5,2.7-12.7-1.1c-3.2-3.8-2.7-9.5,1.1-12.7
					C44.5,36.7,50.2,37.2,53.4,41"/>
			</g>
			<g clip-path="url(#SVGID_2_)">
				<defs>
					<polygon id="SVGID_287_" points="47.4,46.3 61.7,37.1 62.5,38.4 					"/>
				</defs>
				<clipPath id="SVGID_70_">
					<use xlink:href="#SVGID_287_"  overflow="visible"/>
				</clipPath>
				<path clip-path="url(#SVGID_70_)" d="M54.3,42.3c2.5,4.3,1,9.8-3.3,12.3c-4.3,2.5-9.8,1-12.3-3.3c-2.5-4.3-1-9.8,3.3-12.3
					C46.3,36.5,51.8,37.9,54.3,42.3"/>
			</g>
			<g clip-path="url(#SVGID_2_)">
				<defs>
					<polygon id="SVGID_289_" points="47.4,46.4 63.1,39.9 63.7,41.3 					"/>
				</defs>
				<clipPath id="SVGID_72_">
					<use xlink:href="#SVGID_289_"  overflow="visible"/>
				</clipPath>
				<path clip-path="url(#SVGID_72_)" d="M55,43.7c1.7,4.7-0.7,9.8-5.4,11.5c-4.7,1.7-9.8-0.7-11.5-5.4c-1.7-4.7,0.7-9.8,5.4-11.5
					C48.1,36.6,53.3,39,55,43.7"/>
			</g>
			<g clip-path="url(#SVGID_2_)">
				<defs>
					<polygon id="SVGID_291_" points="47.5,46.6 64.1,42.9 64.3,44.4 					"/>
				</defs>
				<clipPath id="SVGID_74_">
					<use xlink:href="#SVGID_291_"  overflow="visible"/>
				</clipPath>
				<path clip-path="url(#SVGID_74_)" d="M55.4,45.2c0.9,4.9-2.4,9.6-7.3,10.4c-4.9,0.9-9.6-2.4-10.4-7.3c-0.9-4.9,2.4-9.6,7.3-10.4
					C49.8,37,54.5,40.3,55.4,45.2"/>
			</g>
		</g>
	</g>
</g>
<g id="Layer_1">
</g>
<g id="Layer_3" display="none">
</g>
</svg>
