<?xml version="1.0" encoding="utf-8"?>
<!-- Generator: Adobe Illustrator 17.1.0, SVG Export Plug-In . SVG Version: 6.00 Build 0)  -->
<!DOCTYPE svg PUBLIC "-//W3C//DTD SVG 1.1//EN" "http://www.w3.org/Graphics/SVG/1.1/DTD/svg11.dtd">
<svg version="1.1" xmlns="http://www.w3.org/2000/svg" xmlns:xlink="http://www.w3.org/1999/xlink" x="0px" y="0px"
	 viewBox="0 0 150.2 24.2" enable-background="new 0 0 150.2 24.2" xml:space="preserve">
<g id="Layer_4">
</g>
<g id="Layer_2">
	<g>
		<g>
			<defs>
				<rect id="SVGID_147_" x="-564.8" y="-784.8" width="1280" height="809"/>
			</defs>
			<clipPath id="SVGID_2_">
				<use xlink:href="#SVGID_147_"  overflow="visible"/>
			</clipPath>
			<path clip-path="url(#SVGID_2_)" fill="none" stroke="#FFFFFF" stroke-width="1.25" stroke-miterlimit="10" d="M679.2-5.8v27
				 M679.2-754.8v-27 M-528.8-5.8v27 M-528.8-754.8v-27 M685.2-11.8h27 M-534.8-11.8h-27 M685.2-748.8h27 M-534.8-748.8h-27"/>
			<path clip-path="url(#SVGID_2_)" fill="none" stroke="#000000" stroke-width="0.25" stroke-miterlimit="10" d="M679.2-5.8v27
				 M679.2-754.8v-27 M-528.8-5.8v27 M-528.8-754.8v-27 M685.2-11.8h27 M-534.8-11.8h-27 M685.2-748.8h27 M-534.8-748.8h-27"/>
			<rect x="0.2" y="0.2" clip-path="url(#SVGID_2_)" width="15" height="15"/>
			
				<rect x="0.2" y="0.2" clip-path="url(#SVGID_2_)" fill="none" stroke="#FFFFFF" stroke-width="0.5" stroke-miterlimit="10" width="15" height="15"/>
			<rect x="15.2" y="0.2" clip-path="url(#SVGID_2_)" fill="#191919" width="15" height="15"/>
			
				<rect x="15.2" y="0.2" clip-path="url(#SVGID_2_)" fill="none" stroke="#FFFFFF" stroke-width="0.5" stroke-miterlimit="10" width="15" height="15"/>
			<rect x="30.2" y="0.2" clip-path="url(#SVGID_2_)" fill="#333333" width="15" height="15"/>
			
				<rect x="30.2" y="0.2" clip-path="url(#SVGID_2_)" fill="none" stroke="#FFFFFF" stroke-width="0.5" stroke-miterlimit="10" width="15" height="15"/>
			<rect x="45.2" y="0.2" clip-path="url(#SVGID_2_)" fill="#4C4C4C" width="15" height="15"/>
			
				<rect x="45.2" y="0.2" clip-path="url(#SVGID_2_)" fill="none" stroke="#FFFFFF" stroke-width="0.5" stroke-miterlimit="10" width="15" height="15"/>
			<rect x="60.2" y="0.2" clip-path="url(#SVGID_2_)" fill="#666666" width="15" height="15"/>
			
				<rect x="60.2" y="0.2" clip-path="url(#SVGID_2_)" fill="none" stroke="#FFFFFF" stroke-width="0.5" stroke-miterlimit="10" width="15" height="15"/>
			<rect x="75.2" y="0.2" clip-path="url(#SVGID_2_)" fill="#808080" width="15" height="15"/>
			
				<rect x="75.2" y="0.2" clip-path="url(#SVGID_2_)" fill="none" stroke="#FFFFFF" stroke-width="0.5" stroke-miterlimit="10" width="15" height="15"/>
			<rect x="90.2" y="0.2" clip-path="url(#SVGID_2_)" fill="#999999" width="15" height="15"/>
			
				<rect x="90.2" y="0.2" clip-path="url(#SVGID_2_)" fill="none" stroke="#FFFFFF" stroke-width="0.5" stroke-miterlimit="10" width="15" height="15"/>
			<rect x="105.2" y="0.2" clip-path="url(#SVGID_2_)" fill="#B2B2B2" width="15" height="15"/>
			
				<rect x="105.2" y="0.2" clip-path="url(#SVGID_2_)" fill="none" stroke="#FFFFFF" stroke-width="0.5" stroke-miterlimit="10" width="15" height="15"/>
			<rect x="120.2" y="0.2" clip-path="url(#SVGID_2_)" fill="#CCCCCC" width="15" height="15"/>
			
				<rect x="120.2" y="0.2" clip-path="url(#SVGID_2_)" fill="none" stroke="#FFFFFF" stroke-width="0.5" stroke-miterlimit="10" width="15" height="15"/>
			<rect x="135.2" y="0.2" clip-path="url(#SVGID_2_)" fill="#E5E5E5" width="15" height="15"/>
			
				<rect x="135.2" y="0.2" clip-path="url(#SVGID_2_)" fill="none" stroke="#FFFFFF" stroke-width="0.5" stroke-miterlimit="10" width="15" height="15"/>
		</g>
	</g>
</g>
<g id="Layer_1">
</g>
<g id="Layer_3" display="none">
</g>
</svg>
