<?xml version="1.0" encoding="utf-8"?>
<!-- Generator: Adobe Illustrator 17.1.0, SVG Export Plug-In . SVG Version: 6.00 Build 0)  -->
<!DOCTYPE svg PUBLIC "-//W3C//DTD SVG 1.1//EN" "http://www.w3.org/Graphics/SVG/1.1/DTD/svg11.dtd">
<svg version="1.1" xmlns="http://www.w3.org/2000/svg" xmlns:xlink="http://www.w3.org/1999/xlink" x="0px" y="0px"
	 viewBox="0 0 24.8 121.7" enable-background="new 0 0 24.8 121.7" xml:space="preserve">
<g id="Layer_4">
</g>
<g id="Layer_2">
	<g>
		<g>
			<defs>
				<rect id="SVGID_147_" y="-343.8" width="1280" height="809"/>
			</defs>
			<clipPath id="SVGID_2_">
				<use xlink:href="#SVGID_147_"  overflow="visible"/>
			</clipPath>
			<path clip-path="url(#SVGID_2_)" fill="none" stroke="#FFFFFF" stroke-width="1.25" stroke-miterlimit="10" d="M1244,435.2v27
				 M1244-313.8v-27 M36,435.2v27 M36-313.8v-27 M1250,429.2h27 M30,429.2H3 M1250-307.8h27 M30-307.8H3"/>
			<path clip-path="url(#SVGID_2_)" fill="none" stroke="#000000" stroke-width="0.25" stroke-miterlimit="10" d="M1244,435.2v27
				 M1244-313.8v-27 M36,435.2v27 M36-313.8v-27 M1250,429.2h27 M30,429.2H3 M1250-307.8h27 M30-307.8H3"/>
			<rect x="9" y="0.7" clip-path="url(#SVGID_2_)" fill="#00AEEF" width="15" height="15"/>
			
				<rect x="9" y="0.7" clip-path="url(#SVGID_2_)" fill="none" stroke="#000000" stroke-width="0.5" stroke-miterlimit="10" width="15" height="15"/>
			<g clip-path="url(#SVGID_2_)">
				<text transform="matrix(1 0 0 1 15.285 9.4455)" font-family="'Courier'" font-size="3.5">C</text>
			</g>
			<rect x="9" y="15.7" clip-path="url(#SVGID_2_)" fill="#EC008C" width="15" height="15"/>
			
				<rect x="9" y="15.7" clip-path="url(#SVGID_2_)" fill="none" stroke="#000000" stroke-width="0.5" stroke-miterlimit="10" width="15" height="15"/>
			<g clip-path="url(#SVGID_2_)">
				<text transform="matrix(1 0 0 1 15.285 24.4458)" font-family="'Courier'" font-size="3.5">M</text>
			</g>
			<rect x="9" y="30.7" clip-path="url(#SVGID_2_)" fill="#FFF200" width="15" height="15"/>
			
				<rect x="9" y="30.7" clip-path="url(#SVGID_2_)" fill="none" stroke="#000000" stroke-width="0.5" stroke-miterlimit="10" width="15" height="15"/>
			<g clip-path="url(#SVGID_2_)">
				<text transform="matrix(1 0 0 1 15.285 39.446)" font-family="'Courier'" font-size="3.5">Y</text>
			</g>
			<rect x="9" y="45.7" clip-path="url(#SVGID_2_)" fill="#2E3192" width="15" height="15"/>
			
				<rect x="9" y="45.7" clip-path="url(#SVGID_2_)" fill="none" stroke="#000000" stroke-width="0.5" stroke-miterlimit="10" width="15" height="15"/>
			<g clip-path="url(#SVGID_2_)">
				<text transform="matrix(1 0 0 1 14.0697 54.4456)" font-family="'Courier'" font-size="3.5">CM</text>
			</g>
			<rect x="9" y="60.7" clip-path="url(#SVGID_2_)" fill="#ED1C24" width="15" height="15"/>
			
				<rect x="9" y="60.7" clip-path="url(#SVGID_2_)" fill="none" stroke="#000000" stroke-width="0.5" stroke-miterlimit="10" width="15" height="15"/>
			<g clip-path="url(#SVGID_2_)">
				<text transform="matrix(1 0 0 1 14.0697 69.4459)" font-family="'Courier'" font-size="3.5">MY</text>
			</g>
			<rect x="9" y="75.7" clip-path="url(#SVGID_2_)" fill="#00A651" width="15" height="15"/>
			
				<rect x="9" y="75.7" clip-path="url(#SVGID_2_)" fill="none" stroke="#000000" stroke-width="0.5" stroke-miterlimit="10" width="15" height="15"/>
			<g clip-path="url(#SVGID_2_)">
				<text transform="matrix(1 0 0 1 14.0697 84.4455)" font-family="'Courier'" font-size="3.5">CY</text>
			</g>
			<rect x="9" y="90.7" clip-path="url(#SVGID_2_)" fill="#363639" width="15" height="15"/>
			
				<rect x="9" y="90.7" clip-path="url(#SVGID_2_)" fill="none" stroke="#000000" stroke-width="0.5" stroke-miterlimit="10" width="15" height="15"/>
			<g clip-path="url(#SVGID_2_)">
				<text transform="matrix(1 0 0 1 12.8547 99.4458)" font-family="'Courier'" font-size="3.5">CMY</text>
			</g>
			<rect x="9" y="105.7" clip-path="url(#SVGID_2_)" fill="#231F20" width="15" height="15"/>
			
				<rect x="9" y="105.7" clip-path="url(#SVGID_2_)" fill="none" stroke="#000000" stroke-width="0.5" stroke-miterlimit="10" width="15" height="15"/>
			<g clip-path="url(#SVGID_2_)">
				<text transform="matrix(1 0 0 1 15.285 114.4455)" font-family="'Courier'" font-size="3.5">K</text>
			</g>
		</g>
	</g>
</g>
<g id="Layer_1">
</g>
<g id="Layer_3" display="none">
</g>
</svg>
