<?xml version="1.0" encoding="utf-8"?>
<!-- Generator: Adobe Illustrator 17.1.0, SVG Export Plug-In . SVG Version: 6.00 Build 0)  -->
<!DOCTYPE svg PUBLIC "-//W3C//DTD SVG 1.1//EN" "http://www.w3.org/Graphics/SVG/1.1/DTD/svg11.dtd">
<svg version="1.1" xmlns="http://www.w3.org/2000/svg" xmlns:xlink="http://www.w3.org/1999/xlink" x="0px" y="0px"
	 viewBox="0 0 63 63.1" enable-background="new 0 0 63 63.1" xml:space="preserve">
<g id="Layer_4">
</g>
<g id="Layer_2">
	<g>
		<g>
			<defs>
				<rect id="SVGID_147_" x="-1217" y="0" width="1280" height="809"/>
			</defs>
			<clipPath id="SVGID_2_">
				<use xlink:href="#SVGID_147_"  overflow="visible"/>
			</clipPath>
			<path clip-path="url(#SVGID_2_)" fill="none" stroke="#FFFFFF" stroke-width="1.25" stroke-miterlimit="10" d="M27,779v27 M27,30
				V3 M-1181,779v27 M-1181,30V3 M33,773h27 M-1187,773h-27 M33,36h27 M-1187,36h-27"/>
			<path clip-path="url(#SVGID_2_)" fill="none" stroke="#000000" stroke-width="0.25" stroke-miterlimit="10" d="M27,779v27 M27,30
				V3 M-1181,779v27 M-1181,30V3 M33,773h27 M-1187,773h-27 M33,36h27 M-1187,36h-27"/>
			
				<circle clip-path="url(#SVGID_2_)" fill="none" stroke="#FFFFFF" stroke-width="1.25" stroke-miterlimit="10" cx="9" cy="16.5" r="6"/>
			
				<line clip-path="url(#SVGID_2_)" fill="none" stroke="#FFFFFF" stroke-width="1.25" stroke-miterlimit="10" x1="0" y1="16.5" x2="18" y2="16.5"/>
			
				<line clip-path="url(#SVGID_2_)" fill="none" stroke="#FFFFFF" stroke-width="1.25" stroke-miterlimit="10" x1="9" y1="7.5" x2="9" y2="25.5"/>
			
				<circle clip-path="url(#SVGID_2_)" fill="none" stroke="#FFFFFF" stroke-width="1.25" stroke-miterlimit="10" cx="9" cy="16.5" r="3"/>
			
				<circle clip-path="url(#SVGID_2_)" fill="none" stroke="#000000" stroke-width="0.25" stroke-miterlimit="10" cx="9" cy="16.5" r="6"/>
			
				<line clip-path="url(#SVGID_2_)" fill="none" stroke="#000000" stroke-width="0.25" stroke-miterlimit="10" x1="0" y1="16.5" x2="18" y2="16.5"/>
			
				<line clip-path="url(#SVGID_2_)" fill="none" stroke="#000000" stroke-width="0.25" stroke-miterlimit="10" x1="9" y1="7.5" x2="9" y2="25.5"/>
			<path clip-path="url(#SVGID_2_)" d="M12,16.5c0,1.7-1.3,3-3,3c-1.7,0-3-1.3-3-3c0-1.7,1.3-3,3-3C10.7,13.5,12,14.8,12,16.5"/>
			
				<line clip-path="url(#SVGID_2_)" fill="none" stroke="#FFFFFF" stroke-width="0.25" stroke-miterlimit="10" x1="6" y1="16.5" x2="12" y2="16.5"/>
			
				<line clip-path="url(#SVGID_2_)" fill="none" stroke="#FFFFFF" stroke-width="0.25" stroke-miterlimit="10" x1="9" y1="13.5" x2="9" y2="19.5"/>
			
				<circle clip-path="url(#SVGID_2_)" fill="none" stroke="#FFFFFF" stroke-width="1.25" stroke-miterlimit="10" cx="46.5" cy="54" r="6"/>
			
				<line clip-path="url(#SVGID_2_)" fill="none" stroke="#FFFFFF" stroke-width="1.25" stroke-miterlimit="10" x1="37.5" y1="54" x2="55.5" y2="54"/>
			
				<line clip-path="url(#SVGID_2_)" fill="none" stroke="#FFFFFF" stroke-width="1.25" stroke-miterlimit="10" x1="46.5" y1="45" x2="46.5" y2="63"/>
			
				<circle clip-path="url(#SVGID_2_)" fill="none" stroke="#FFFFFF" stroke-width="1.25" stroke-miterlimit="10" cx="46.5" cy="54" r="3"/>
			
				<circle clip-path="url(#SVGID_2_)" fill="none" stroke="#000000" stroke-width="0.25" stroke-miterlimit="10" cx="46.5" cy="54" r="6"/>
			
				<line clip-path="url(#SVGID_2_)" fill="none" stroke="#000000" stroke-width="0.25" stroke-miterlimit="10" x1="37.5" y1="54" x2="55.5" y2="54"/>
			
				<line clip-path="url(#SVGID_2_)" fill="none" stroke="#000000" stroke-width="0.25" stroke-miterlimit="10" x1="46.5" y1="45" x2="46.5" y2="63"/>
			<path clip-path="url(#SVGID_2_)" d="M49.5,54c0,1.7-1.3,3-3,3c-1.7,0-3-1.3-3-3c0-1.7,1.3-3,3-3C48.2,51,49.5,52.3,49.5,54"/>
			
				<line clip-path="url(#SVGID_2_)" fill="none" stroke="#FFFFFF" stroke-width="0.25" stroke-miterlimit="10" x1="43.5" y1="54" x2="49.5" y2="54"/>
			
				<line clip-path="url(#SVGID_2_)" fill="none" stroke="#FFFFFF" stroke-width="0.25" stroke-miterlimit="10" x1="46.5" y1="51" x2="46.5" y2="57"/>
		</g>
	</g>
</g>
<g id="Layer_1">
</g>
<g id="Layer_3" display="none">
</g>
</svg>
